<?xml version="1.0" encoding="UTF-8"?>
<svg id="Layer_1" data-name="Layer 1" xmlns="http://www.w3.org/2000/svg" viewBox="0 0 1073.79 1024">
  <defs>
    <style>
      .cls-1 {
        fill: #33bce6;
      }

      .cls-1, .cls-2, .cls-3, .cls-4 {
        stroke-width: 0px;
      }

      .cls-2 {
        fill: #84c857;
      }

      .cls-3 {
        fill: #122543;
      }

      .cls-4 {
        fill: #fff;
      }
    </style>
  </defs>
  <g id="Colour_Logo" data-name="Colour Logo">
    <g id="Light_Blue" data-name="Light Blue">
      <path class="cls-1" d="M784.68,815.25c-35.23-.61-81.09,102.96-81.09,102.96,0,0,11.24.61,30.37.91,19.13.3,58.92,11.54,58.92,11.54l63.78-87.16s-36.75-27.64-71.98-28.25Z"/>
      <path class="cls-1" d="M742.6,812.71c5.94-5.87,9.34-8.4,13.13-10.99l-83.73-145c-61.96,26.12-72.89,60.74-81.39,74.11-8.5,13.36-30.37,5.47-30.37,5.47,0,0-15.19,37.66-14.84,93.54.35,55.88,14.84,108.12,14.84,108.12,0,0,54.67,8.5,93.54-9.72,11.5-5.39,21.4-13.4,29.97-22.64,3.66-7.94,13.88-29.36,27.19-51.04,10.97-17.88,21.44-31.74,31.66-41.84Z"/>
      <path class="cls-1" d="M274.55,289.47c35.23,18.22,202.27,59.53,173.11,176.15-.81,3.23-1.82,6.34-3.01,9.35,8.11,12.26,14.38,25.54,18.64,39.53,17.6-7.9,66.85-29.9,79.99-34.62,9.17-3.3,26.25-7.15,44.18-7.15h0c44.09,0,74.28,23.31,80.76,62.35,2.93,17.68-3.46,38.03-20.13,64.04-10.69,16.69-25.94,36.13-45.31,57.78-14.38,16.08-28.85,30.94-40.57,42.58,5.19,3.92,8.81,9.51,10.32,15.76.06,0,.13.01.19.02.4-.73.83-1.52,1.26-2.32,4.76-8.8,11.95-22.09,25.82-36.4,15.94-16.45,37.19-30.34,63.15-41.28,5.94-2.5,11.72-2.17,16.31-.66l14.56-10.32c33.04-31.78,105.66-101.68,116.66-112.68,14.32-14.31,37.97-42.89,39.18-77.14,1.52-43.13-12.72-98.74-34.13-139.74-21.41-41-67.88-91.11-103.87-133.94-35.99-42.82-31.74-79.27-27.33-79.27,2.3.32,4.67.75,7.09,1.27-44.06-15.56-90.13-23.44-137.37-23.44-57.69,0-113.65,11.74-166.32,34.89-51.02,22.43-96.89,54.58-136.32,95.56-12.43,12.92-24.02,26.51-34.74,40.72,4.92,8.24,26.95,42.96,57.88,58.96ZM428.23,184.99c.61-26.73,5.62-48.75,50.42-69.25,44.8-20.5,110.93,29.38,139.18,55.81,28.25,26.42,51.1,86.96,46.89,129.78-3.3,25.97-11.96,53.05-30.07,60.31-18.11,7.25-33.26,8.66-60.84-8.39-34.14-21.1-32.97-29.99-64.86-64.61-31.89-34.62-51.8-39.43-64.31-56.43-12.51-17.01-17.01-20.48-16.4-47.21Z"/>
    </g>
    <g id="Green">
      <path class="cls-2" d="M711.67,160.77c35.99,42.82,82.46,92.94,103.87,133.94,21.41,41,35.65,96.62,34.13,139.74-1.21,34.25-24.86,62.84-39.18,77.14-11,10.99-83.62,80.89-116.66,112.68l9.85-6.98s.05-.04.08-.06c5.69-4,23.24-13.31,63.33-13.31,35.73,0,73.19,19.69,103.92,55.11h0s0,0,0,0c46.74-78.83,73.58-170.86,73.58-269.16,0-27.93-2.18-55.34-6.35-82.1-20.78-43.63-48.12-83.24-81.55-117.98-39.43-40.98-85.3-73.13-136.32-95.56-11.94-5.25-24.05-9.88-36.31-13.95-4.12,3.42-6.65,39.74,27.6,80.49Z"/>
      <path class="cls-2" d="M125.15,506.99c0,10.37.34,20.68,1.01,30.93l37.95,3.72c3.92-34.26,19.17-65.98,43.92-90.74,28.98-28.98,67.51-44.94,108.49-44.94s79.51,15.96,108.49,44.94c7.88,7.88,14.79,16.46,20.69,25.61.93-5.33,1.7-9.75,1.98-10.9,29.16-116.62-137.88-157.93-173.12-176.15-30.93-16-52.96-50.72-57.88-58.96-23.41,31.03-42.7,65.05-57.59,101.64-22.52,55.33-33.94,114.16-33.94,174.84Z"/>
      <path class="cls-2" d="M617.82,171.55c-28.25-26.42-94.38-76.31-139.18-55.81-44.8,20.5-49.81,42.52-50.42,69.25-.61,26.73,3.89,30.2,16.4,47.21,12.51,17.01,32.42,21.81,64.31,56.43,31.89,34.62,30.72,43.51,64.86,64.61,27.58,17.05,42.73,15.64,60.84,8.39,18.11-7.25,26.76-34.34,30.07-60.31,4.21-42.82-18.64-103.36-46.89-129.78Z"/>
    </g>
    <g>
      <path id="Left_Leg" data-name="Left Leg" class="cls-4" d="M1013.98,913.12l-141.07-52.41-51.35,70.17,169.33,49.36s43.73,17.62,53.45-19.13c9.72-36.75-30.37-47.99-30.37-47.99Z"/>
      <path id="Right_Leg" data-name="Right Leg" class="cls-4" d="M868.62,823.4l99.5,36.26s5.47-29.61-8.2-50.57c-13.67-20.96-113.89-136.21-113.89-136.21,0,0-38.27-40.55-76.08-41-37.81-.46-50.11,8.2-50.11,8.2l-21.68,15.37,66.7,115.52c11.69-10.59,24.67-22.46,24.67-22.46l65.1,65.94c6.53,3.82,11.38,7.12,13.97,8.96Z"/>
      <circle id="Face" class="cls-4" cx="316.51" cy="559.4" r="116.17"/>
      <path id="Torso" class="cls-4" d="M640.66,539.66c-8.66-52.16-73.35-38.72-87.92-33.48-14.58,5.24-83.61,36.34-83.61,36.34,0,0,1.21,35.83,1.21,35.84l75.06-27.94s-137.2,227.29-306.72,141.26c-64.4-32.68-119.43-89.03-119.43-89.03l50.42,3.64s-5.29-22.22-6.23-36.64l-59.97-5.88s-50.42-7.29-71.68,38.87c-21.26,46.16,52.24,94.76,52.24,94.76,0,0,202.88,148.21,275.77,190.73,72.89,42.52,174.33,49.01,174.33,49.01-17.61-108.7-14.88-133,6.51-212.16l-22.91-21.51s130.33-119.28,122.94-163.82Z"/>
      <path id="Right_Reflection" data-name="Right Reflection" class="cls-4" d="M247.87,501.76c2.26-1.04,1-4.49-1.39-3.8-.14.04-13.16,3.72-17.13,16.91-2.18,7.24-1.3,14.22,1.65,19.97,1.14,2.22,4.46.76,3.71-1.62-6.44-20.44,12.38-31.11,13.16-31.47Z"/>
      <path id="Left_Reflection" data-name="Left Reflection" class="cls-4" d="M355.99,496.5c2.26-1.04,1-4.49-1.39-3.8-.14.04-13.16,3.72-17.13,16.91-2.18,7.24-1.3,14.22,1.65,19.97,1.14,2.22,4.46.76,3.71-1.62-6.44-20.44,12.38-31.11,13.16-31.47Z"/>
    </g>
    <g>
      <path class="cls-3" d="M319.86,632.91c.34,0,.68-.02,1.02-.03,42.49-1.44,59.54-35.92,60.24-37.39,2.22-4.62.28-10.14-4.32-12.38-4.61-2.25-10.17-.32-12.44,4.27-.52,1.06-13.13,25.84-44.11,26.89-.25,0-.5.02-.75.02-29.34.64-38.79-20.36-39.24-21.39-1.96-4.72-7.37-6.97-12.11-5.04-4.76,1.94-7.05,7.38-5.11,12.14.57,1.39,14.29,33.84,56.82,32.92Z"/>
      <path class="cls-3" d="M1050.79,901.94c-11.26-9.47-23.35-13.89-27.87-15.31l-31.42-11.67c2.01-3.07,3.42-6.53,4.1-10.22.77-4.16,6.94-41.44-12.27-70.9-3.53-5.41-11.76-15.9-22.31-28.81h0s0,0,0,0c44.2-75.15,69.69-163.49,69.69-258.02,0-273.6-213.4-495.39-476.65-495.39S78.02,233.4,77.41,506.99c-.02,10,.27,19.95.85,29.84-7.81,1.26-16.54,3.54-25.41,7.51-20.6,9.23-36.66,25.35-46.45,46.61-7.88,17.12-8.5,36.23-1.77,55.27,4.64,13.14,12.81,26.44,24.29,39.53,16.44,18.74,35.26,31.95,39.04,34.51,5.62,4.11,44.69,32.6,93.09,67.04,0,0,.01,0,.02.01,0,0-.01,0-.02-.01,85.93,129.88,229.89,215.07,393.01,215.07,77.85,0,151.32-19.42,216.22-53.83l-.32.21c-.78-.19,11.49,2.86,16.6,4.3,2.09.59,4.22.88,6.32.88,1.9,0,3.78-.24,5.6-.69l183.54,53.5c4.65,1.71,16.91,5.65,31.2,5.65,29.1,0,50.84-16.51,58.15-44.15,6.74-25.48-.76-49.65-20.58-66.31ZM959.92,809.1c13.67,20.96,8.2,50.57,8.2,50.57l-59.46-21.67-40.04-14.59c-2.6-1.84-7.45-5.14-13.97-8.96l-65.1-65.94s-12.98,11.87-24.67,22.46l-66.7-115.52,21.68-15.37s11.68-8.22,47.25-8.22c.94,0,1.89,0,2.86.02,37.81.46,76.08,41,76.08,41,0,0,67.53,77.66,99.28,117.07,6.93,8.6,12.16,15.39,14.61,19.14ZM159.08,332.16c21.71-53.35,52.78-101.25,92.33-142.36,39.43-40.98,85.3-73.13,136.32-95.56,52.67-23.15,108.63-34.89,166.32-34.89s113.65,11.74,166.32,34.89c51.02,22.43,96.89,54.58,136.32,95.56,33.43,34.74,60.77,74.35,81.55,117.98,4.17,26.75,6.35,54.17,6.35,82.1,0,98.3-26.84,190.33-73.59,269.17-30.73-35.42-68.19-55.11-103.92-55.11-40.09,0-57.65,9.31-63.33,13.31-.03.02-.05.04-.08.06l-24.41,17.3c-5.24-1.72-10.99-1.58-16.31.66-25.96,10.94-47.21,24.83-63.15,41.28-13.87,14.31-21.06,27.6-25.82,36.4-.44.8-.86,1.59-1.26,2.32-.06,0-.13-.01-.19-.02-1.51-6.25-5.13-11.84-10.32-15.76,11.73-11.64,26.19-26.5,40.57-42.58,19.37-21.65,34.62-41.09,45.31-57.78,16.67-26.01,23.06-46.36,20.13-64.04-6.48-39.04-36.67-62.35-80.76-62.35h0c-17.93,0-35.01,3.85-44.18,7.15-13.14,4.72-62.39,26.72-79.99,34.62-7.23-23.76-20.24-45.53-38.3-63.59-28.98-28.98-67.51-44.94-108.49-44.94s-79.51,15.96-108.49,44.94c-24.75,24.75-39.99,56.47-43.92,90.74l-37.95-3.72c-.67-10.25-1.01-20.56-1.01-30.93,0-60.68,11.42-119.5,33.94-174.84ZM342.84,527.97c.75,2.38-2.58,3.84-3.71,1.62-2.95-5.75-3.82-12.73-1.65-19.97,3.97-13.2,16.99-16.87,17.13-16.91,2.39-.69,3.64,2.76,1.39,3.8-.78.36-19.6,11.02-13.16,31.47ZM342.12,485.68c-7.77,1.25-8.14,3.41-26.75,5.08-18.67.26-19.27-1.86-27.13-2.3-25.38-1.44-50.3.27-65.62,2.52,21.13-28.94,55.31-47.75,93.89-47.75,34.09,0,64.75,14.68,86,38.07-15.54-.3-37.91.77-60.39,4.39ZM234.71,533.23c.75,2.38-2.58,3.84-3.71,1.62-2.95-5.75-3.82-12.73-1.65-19.97,3.97-13.2,16.99-16.87,17.13-16.91,2.39-.69,3.64,2.76,1.39,3.8-.78.36-19.6,11.02-13.16,31.47ZM233.51,561.23c11.22,8.22,45.8,4.79,56.86-1.39,15.05-8.4,16.32-25.94,18.2-36.93.95-5.56,6.77-6.32,8.13-6.39,1.36-.07,7.22.08,8.74,5.52,3,10.73,6.07,28.05,21.89,34.87,11.64,5.01,46.39,4.87,56.7-4.46,10.42-9.42,10.46-39.24,11.66-43.93.59-2.29,1.45-4.08,2.41-5.51,9.29,16.7,14.58,35.92,14.58,56.38,0,64.16-52.01,116.17-116.17,116.17s-116.17-52.01-116.17-116.17c0-17.49,3.87-34.07,10.79-48.95,2.06,1.49,4.61,3.83,6.26,8.28,1.68,4.54,4.78,34.19,16.11,42.5ZM540.63,724.99c-21.39,79.17-24.12,103.46-6.51,212.16,0,0-101.44-6.49-174.33-49.01-72.89-42.52-275.77-190.73-275.77-190.73,0,0-73.5-48.59-52.24-94.76,21.26-46.16,71.68-38.87,71.68-38.87l59.97,5.88c.95,14.42,6.23,36.64,6.23,36.64l-50.42-3.64s55.03,56.34,119.43,89.03c169.52,86.03,306.74-141.29,306.72-141.26l-75.06,27.94s-1.21-35.84-1.21-35.84c0,0,69.03-31.1,83.61-36.34,14.58-5.24,79.27-18.68,87.92,33.48,7.39,44.54-122.94,163.82-122.94,163.82l22.91,21.51ZM653.78,928.23c-38.87,18.22-93.54,9.72-93.54,9.72,0,0-14.49-52.24-14.84-108.12-.35-55.88,14.84-93.54,14.84-93.54,0,0,21.87,7.9,30.37-5.47,8.5-13.36,19.44-47.99,81.39-74.11l83.73,145c-3.8,2.59-7.19,5.12-13.13,10.99-10.22,10.09-20.68,23.96-31.66,41.84-13.31,21.69-23.53,43.11-27.19,51.04-8.56,9.24-18.46,17.25-29.97,22.64ZM792.88,930.66s-39.79-11.24-58.92-11.54c-19.13-.3-30.37-.91-30.37-.91,0,0,45.86-103.57,81.09-102.96,35.23.61,71.98,28.25,71.98,28.25l-63.78,87.16ZM1044.35,961.1c-4.96,18.76-18.79,23.35-31.14,23.35s-22.32-4.22-22.32-4.22l-169.33-49.36,22.51-30.77,28.83-39.4,10.84,4.03,130.22,48.38s40.09,11.24,30.37,47.99Z"/>
    </g>
  </g>
</svg>