<?xml version="1.0" encoding="UTF-8"?>
<svg id="Layer_1" data-name="Layer 1" xmlns="http://www.w3.org/2000/svg" viewBox="0 0 1828.83 1024">
  <defs>
    <style>
      .cls-1 {
        fill: #33bce6;
      }

      .cls-1, .cls-2, .cls-3, .cls-4 {
        stroke-width: 0px;
      }

      .cls-2 {
        fill: #84c857;
      }

      .cls-3 {
        fill: #122543;
      }

      .cls-4 {
        fill: #fff;
      }
    </style>
  </defs>
  <g id="Colour_Logo" data-name="Colour Logo">
    <g>
      <path class="cls-3" d="M865.32,361.69h-36.64v-101.56c1.73-.38,4.18-.87,7.36-1.44,3.17-.58,6.39-.87,9.66-.87,6.92,0,11.92,1.2,15,3.61,3.07,2.41,4.62,6.88,4.62,13.42v86.84ZM828.67,319.85h36.64v114.83c-1.54.58-3.89,1.1-7.07,1.59-3.17.48-6.49.72-9.95.72-6.92,0-11.93-1.3-15-3.89-3.08-2.6-4.62-6.97-4.62-13.13v-100.11ZM959.08,361.69h-112.52v-29.14h112.52v29.14ZM975.24,361.69h-36.35v-101.56c1.54-.38,3.89-.87,7.07-1.44,3.17-.58,6.39-.87,9.66-.87,6.92,0,11.92,1.25,15,3.75,3.07,2.5,4.62,7.02,4.62,13.56v86.55ZM938.89,319.85h36.35v114.83c-1.54.58-3.89,1.1-7.07,1.59-3.17.48-6.4.72-9.67.72-7.12,0-12.17-1.3-15.15-3.89-2.98-2.6-4.47-6.97-4.47-13.13v-100.11Z"/>
      <path class="cls-3" d="M1150.08,366.88c0,14.81-2.89,27.65-8.66,38.52-5.77,10.87-13.9,19.24-24.38,25.1-10.49,5.87-22.84,8.8-37.07,8.8s-26.64-2.93-37.22-8.8c-10.58-5.86-18.8-14.18-24.67-24.96-5.87-10.77-8.8-23.66-8.8-38.66s2.98-27.6,8.94-38.37c5.96-10.77,14.23-19.09,24.81-24.96,10.58-5.86,22.89-8.8,36.93-8.8s26.3,2.98,36.79,8.94c10.48,5.96,18.65,14.33,24.52,25.1,5.87,10.77,8.8,23.47,8.8,38.08ZM1079.68,323.02c-10.39,0-18.61,3.85-24.67,11.54-6.06,7.7-9.09,18.46-9.09,32.31s2.98,25.15,8.94,32.75c5.96,7.6,14.33,11.4,25.1,11.4s18.85-3.84,24.81-11.54c5.96-7.69,8.94-18.56,8.94-32.6s-2.98-24.38-8.94-32.17c-5.96-7.79-14.33-11.69-25.1-11.69Z"/>
      <path class="cls-3" d="M1217.87,379l-35.49-1.73v-129.54c1.34-.38,3.51-.87,6.49-1.44,2.98-.58,6.1-.87,9.38-.87,6.92,0,11.92,1.2,15,3.61,3.07,2.41,4.62,6.69,4.62,12.84v117.14ZM1182.38,359.09l35.49,1.73v73.86c-1.54.58-3.75,1.1-6.64,1.59-2.89.48-6.06.72-9.52.72-6.54,0-11.4-1.2-14.57-3.61-3.17-2.4-4.76-6.68-4.76-12.84v-61.45Z"/>
      <path class="cls-3" d="M1255.08,258.11c0-5.58,1.97-10.29,5.91-14.14,3.94-3.85,8.89-5.77,14.86-5.77s11.11,1.92,14.86,5.77c3.75,3.85,5.63,8.56,5.63,14.14s-1.88,10.05-5.63,13.99c-3.75,3.94-8.71,5.91-14.86,5.91s-10.92-1.97-14.86-5.91c-3.94-3.94-5.91-8.61-5.91-13.99ZM1293.74,377.27h-35.77v-77.32c1.54-.58,3.8-1.1,6.78-1.59,2.98-.48,6.2-.72,9.66-.72,6.73,0,11.64,1.2,14.71,3.61,3.07,2.41,4.62,6.78,4.62,13.13v62.9ZM1257.97,359.09h35.77v75.59c-1.54.58-3.75,1.1-6.64,1.59-2.89.48-6.06.72-9.52.72-6.54,0-11.45-1.2-14.71-3.61-3.27-2.4-4.9-6.68-4.9-12.84v-61.45Z"/>
      <path class="cls-3" d="M1422.42,405.25v-90.59h35.49v94.34c0,4.23-.91,7.74-2.74,10.53-1.83,2.79-4.76,5.44-8.8,7.93-4.62,3.08-10.72,5.82-18.32,8.22-7.6,2.4-16.59,3.61-26.98,3.61-15.2,0-28.47-2.55-39.81-7.65-11.35-5.09-20.2-12.98-26.54-23.66-6.35-10.68-9.52-24.19-9.52-40.54s3.12-30.48,9.38-41.26c6.25-10.77,14.66-18.7,25.24-23.8,10.58-5.09,22.31-7.65,35.2-7.65,7.11,0,13.61.87,19.47,2.6,5.87,1.73,10.63,3.75,14.28,6.06v30.29c-3.08-2.89-7.12-5.38-12.12-7.5-5-2.11-10.77-3.17-17.31-3.17-7.12,0-13.56,1.49-19.33,4.47-5.77,2.98-10.29,7.79-13.56,14.43-3.27,6.64-4.91,15.25-4.91,25.82,0,15,3.46,25.97,10.39,32.89,6.92,6.92,16.25,10.39,27.99,10.39,5.19,0,9.62-.58,13.27-1.73,3.65-1.15,6.73-2.5,9.23-4.04ZM1457.9,321.87l-35.49.29v-74.44c1.34-.38,3.51-.87,6.49-1.44,2.98-.58,6.1-.87,9.38-.87,6.92,0,11.92,1.2,15,3.61,3.07,2.41,4.62,6.69,4.62,12.84v60.01Z"/>
      <path class="cls-3" d="M1547.63,294.75c18.85,0,33.85,3.99,45.01,11.97,11.15,7.98,16.73,20.53,16.73,37.65v66.36c0,4.62-1.11,8.27-3.32,10.96-2.21,2.7-5.05,5.1-8.51,7.21-5.39,3.08-12.22,5.63-20.49,7.65-8.27,2.02-17.6,3.03-27.99,3.03-19.24,0-34.33-3.71-45.3-11.11-10.96-7.4-16.45-18.42-16.45-33.03,0-12.88,4.08-22.74,12.26-29.57,8.17-6.83,20.05-11.01,35.63-12.55l39.24-4.04v-5.19c0-7.69-2.65-13.27-7.93-16.73-5.29-3.46-12.74-5.19-22.36-5.19-7.5,0-14.81.96-21.93,2.89-7.12,1.92-13.46,4.23-19.04,6.92-1.92-1.54-3.66-3.65-5.19-6.35-1.54-2.69-2.31-5.48-2.31-8.37,0-6.92,3.84-12.02,11.54-15.29,5.38-2.5,11.69-4.33,18.9-5.48,7.21-1.15,14.38-1.73,21.49-1.73ZM1549.07,412.46c5.77,0,10.96-.58,15.58-1.73s7.98-2.4,10.1-3.75v-32.89l-28.56,2.89c-7.89.58-13.9,2.26-18.03,5.05-4.14,2.79-6.2,6.88-6.2,12.26s2.21,10,6.64,13.27c4.42,3.27,11.25,4.9,20.48,4.9Z"/>
      <path class="cls-3" d="M1670.25,402.65c-3.08-6.35-6.59-14.28-10.53-23.8-3.94-9.52-8.03-20.58-12.26-33.18-4.23-12.6-8.56-26.49-12.98-41.69,2.11-2.31,4.81-4.23,8.08-5.77,3.27-1.54,6.82-2.31,10.67-2.31,5,0,9.09,1.11,12.26,3.32,3.17,2.21,5.63,6.2,7.36,11.97,5,15,10.05,29.82,15.15,44.43,5.09,14.62,10.53,29.53,16.3,44.72h1.15c3.65-8.46,7.31-18.42,10.96-29.86,3.65-11.44,7.16-23.32,10.53-35.63,3.36-12.31,6.2-24.04,8.51-35.2,2.31-1.15,4.71-2.06,7.21-2.74,2.5-.67,5.19-1.01,8.08-1.01,4.8,0,8.99,1.11,12.55,3.32,3.56,2.21,5.34,5.91,5.34,11.11,0,4.62-.82,10.72-2.45,18.32-1.64,7.6-3.89,16.01-6.78,25.24-2.89,9.23-6.2,18.85-9.95,28.85-3.75,10-7.69,19.67-11.83,29-4.14,9.33-8.32,17.74-12.55,25.24-9.81,17.5-18.85,30.73-27.12,39.67-8.27,8.94-16.26,13.42-23.95,13.42-5.96,0-10.82-1.78-14.57-5.34-3.75-3.56-6.01-7.93-6.78-13.13,4.23-3.66,8.7-8.03,13.42-13.13,4.71-5.1,9.28-10.53,13.7-16.3,4.42-5.77,8.17-11.44,11.25-17.02-3.27-.96-6.54-2.93-9.81-5.91-3.27-2.98-6.92-8.51-10.96-16.59Z"/>
      <path class="cls-3" d="M888.4,722.9h-59.72v-102.13c0-3.46,1.01-6.15,3.03-8.08,2.02-1.92,4.66-3.46,7.93-4.62,6.15-1.92,13.46-3.36,21.93-4.33,8.46-.96,16.35-1.44,23.66-1.44,25.39,0,44.38,5.39,56.98,16.16,12.6,10.77,18.9,25.39,18.9,43.85,0,12.31-2.79,22.99-8.37,32.02-5.58,9.04-13.75,16.06-24.52,21.06-10.77,5-24.05,7.5-39.81,7.5ZM828.67,706.46h36.64v74.44c-1.54.58-3.89,1.1-7.07,1.59-3.17.48-6.49.72-9.95.72-6.92,0-11.93-1.3-15-3.89-3.08-2.6-4.62-6.97-4.62-13.13v-59.72ZM865.03,693.76h21.35c11.73,0,20.96-2.64,27.7-7.93,6.73-5.29,10.1-13.03,10.1-23.23s-3.22-18.08-9.67-23.08c-6.45-5-15.63-7.5-27.55-7.5-4.23,0-8.18.14-11.83.43-3.66.29-7.02.72-10.1,1.3v60.01Z"/>
      <path class="cls-3" d="M1028.03,725.21l-35.49-1.73v-129.54c1.34-.38,3.51-.87,6.49-1.44,2.98-.58,6.1-.87,9.38-.87,6.92,0,11.92,1.2,15,3.61,3.07,2.41,4.62,6.69,4.62,12.84v117.14ZM992.55,705.3l35.49,1.73v73.86c-1.54.58-3.75,1.1-6.64,1.59-2.89.48-6.06.72-9.52.72-6.54,0-11.4-1.2-14.57-3.61-3.17-2.4-4.76-6.68-4.76-12.84v-61.45Z"/>
      <path class="cls-3" d="M1118.91,640.96c18.85,0,33.85,3.99,45.01,11.97,11.15,7.98,16.73,20.53,16.73,37.65v66.36c0,4.62-1.11,8.27-3.32,10.96-2.21,2.7-5.05,5.1-8.51,7.21-5.39,3.08-12.22,5.63-20.49,7.64-8.27,2.02-17.6,3.03-27.99,3.03-19.24,0-34.33-3.71-45.3-11.11-10.96-7.4-16.45-18.42-16.45-33.04,0-12.88,4.08-22.74,12.26-29.57,8.17-6.82,20.05-11.01,35.63-12.55l39.24-4.04v-5.19c0-7.69-2.65-13.27-7.93-16.73-5.29-3.46-12.74-5.19-22.36-5.19-7.5,0-14.81.97-21.93,2.89-7.12,1.93-13.46,4.23-19.04,6.92-1.92-1.54-3.66-3.65-5.19-6.35-1.54-2.69-2.31-5.48-2.31-8.37,0-6.92,3.84-12.02,11.54-15.29,5.38-2.5,11.69-4.33,18.9-5.48,7.21-1.15,14.38-1.73,21.49-1.73ZM1120.35,758.68c5.77,0,10.96-.58,15.58-1.73,4.62-1.15,7.98-2.4,10.1-3.75v-32.89l-28.56,2.89c-7.89.58-13.9,2.26-18.03,5.05-4.14,2.79-6.2,6.88-6.2,12.26s2.21,10,6.64,13.27c4.42,3.27,11.25,4.9,20.48,4.9Z"/>
      <path class="cls-3" d="M1343.08,692.32v27.99h-35.49v-26.54c0-8.46-2.41-14.66-7.21-18.61-4.81-3.94-11.25-5.91-19.33-5.91-5.96,0-11.3.72-16.01,2.16-4.72,1.44-8.9,3.13-12.55,5.05v43.85h-35.49v-46.16c0-4.62.96-8.41,2.89-11.4,1.92-2.98,4.81-5.72,8.66-8.22,5.77-3.85,13.22-7.07,22.36-9.66,9.13-2.6,19.28-3.9,30.44-3.9,19.43,0,34.57,4.33,45.44,12.98,10.86,8.66,16.3,21.45,16.3,38.37ZM1217,706.17h35.49v74.72c-1.54.58-3.75,1.1-6.64,1.59-2.89.48-6.06.72-9.52.72-6.54,0-11.4-1.2-14.57-3.61-3.17-2.4-4.76-6.68-4.76-12.84v-60.59ZM1307.6,706.17h35.49v74.72c-1.35.58-3.51,1.1-6.49,1.59-2.98.48-6.11.72-9.38.72-6.73,0-11.68-1.2-14.86-3.61-3.17-2.4-4.76-6.68-4.76-12.84v-60.59Z"/>
      <path class="cls-3" d="M1395.88,731.27l-1.44-24.81,77.32-11.54c-.58-7.31-3.37-13.65-8.37-19.04-5-5.38-12.31-8.08-21.93-8.08s-17.99,3.42-24.52,10.24c-6.54,6.83-9.91,16.59-10.1,29.28l.87,15c1.73,12.31,6.49,21.35,14.28,27.12,7.79,5.77,17.64,8.66,29.57,8.66,8.08,0,15.58-1.2,22.5-3.61,6.92-2.4,12.41-5.05,16.44-7.93,2.69,1.73,4.86,3.89,6.49,6.49,1.63,2.6,2.45,5.44,2.45,8.51,0,5-2.21,9.28-6.64,12.84-4.43,3.56-10.39,6.3-17.89,8.22-7.5,1.92-16.06,2.89-25.68,2.89-14.81,0-27.94-2.74-39.38-8.22-11.45-5.48-20.39-13.7-26.83-24.67-6.45-10.96-9.66-24.62-9.66-40.97,0-11.73,1.83-22.02,5.48-30.87,3.65-8.85,8.61-16.2,14.86-22.07,6.25-5.87,13.51-10.29,21.78-13.27,8.27-2.98,16.92-4.47,25.97-4.47,12.69,0,23.8,2.55,33.32,7.65,9.52,5.1,17.02,12.17,22.5,21.21,5.48,9.04,8.22,19.43,8.22,31.16,0,5.39-1.4,9.38-4.18,11.97-2.79,2.6-6.68,4.18-11.68,4.76l-93.77,13.56Z"/>
      <path class="cls-3" d="M1569.85,713.09h-35.49v-103.86c1.54-.58,3.8-1.15,6.78-1.73,2.98-.58,6.1-.86,9.38-.86,6.73,0,11.64,1.2,14.71,3.61,3.07,2.41,4.62,6.68,4.62,12.84v90.02ZM1534.36,705.3h35.49v34.04c0,6.35,1.87,10.87,5.63,13.56,3.75,2.7,9.09,4.04,16.01,4.04,3.07,0,6.39-.38,9.95-1.15,3.56-.77,6.59-1.73,9.09-2.89,1.34,1.54,2.6,3.37,3.75,5.48,1.15,2.12,1.73,4.72,1.73,7.79,0,5.58-2.65,10.2-7.93,13.85-5.29,3.65-13.52,5.48-24.67,5.48-15.2,0-27.17-3.42-35.92-10.24-8.75-6.82-13.13-17.93-13.13-33.32v-36.64ZM1556,675.87v-27.99h56.55c.77,1.35,1.59,3.27,2.45,5.77.87,2.5,1.3,5.1,1.3,7.79,0,4.81-1.15,8.42-3.46,10.82-2.31,2.41-5.29,3.61-8.94,3.61h-47.89Z"/>
    </g>
    <g id="Light_Blue" data-name="Light Blue">
      <path class="cls-1" d="M563.1,718.85c-24.03-.41-55.31,70.23-55.31,70.23,0,0,7.67.41,20.72.62,13.05.21,40.19,7.87,40.19,7.87l43.51-59.46s-25.07-18.85-49.1-19.27Z"/>
      <path class="cls-1" d="M534.4,717.12c4.05-4.01,6.37-5.73,8.96-7.5l-57.11-98.91c-42.26,17.82-49.72,41.43-55.52,50.55-5.8,9.12-20.72,3.73-20.72,3.73,0,0-10.36,25.69-10.12,63.81.24,38.12,10.12,73.75,10.12,73.75,0,0,37.29,5.8,63.81-6.63,7.85-3.68,14.6-9.14,20.44-15.44,2.5-5.41,9.47-20.02,18.55-34.82,7.48-12.2,14.62-21.65,21.59-28.54Z"/>
      <path class="cls-1" d="M215.13,360.21c24.03,12.43,137.97,40.6,118.09,120.16-.55,2.2-1.24,4.32-2.06,6.38,5.53,8.36,9.81,17.42,12.71,26.96,12.01-5.39,45.6-20.39,54.57-23.61,6.26-2.25,17.9-4.87,30.14-4.87h0c30.07,0,50.67,15.9,55.09,42.53,2,12.06-2.36,25.94-13.73,43.68-7.29,11.38-17.69,24.64-30.91,39.41-9.81,10.97-19.68,21.1-27.67,29.05,3.54,2.67,6.01,6.48,7.04,10.75.04,0,.09.01.13.01.27-.5.57-1.04.86-1.59,3.25-6,8.15-15.07,17.61-24.83,10.88-11.22,25.37-20.7,43.08-28.16,4.05-1.71,7.99-1.48,11.13-.45l9.93-7.04c22.54-21.68,72.07-69.36,79.58-76.86,9.77-9.76,25.9-29.26,26.72-52.62,1.04-29.42-8.68-67.36-23.28-95.32-14.61-27.97-46.3-62.15-70.85-91.36-24.55-29.21-21.65-54.07-18.65-54.07,1.57.22,3.19.51,4.84.86-30.05-10.61-61.48-15.99-93.7-15.99-39.35,0-77.52,8.01-113.45,23.8-34.8,15.3-66.09,37.23-92.99,65.19-8.48,8.81-16.38,18.08-23.7,27.78,3.35,5.62,18.38,29.3,39.48,40.21ZM319.96,288.94c.41-18.23,3.83-33.25,34.39-47.23,30.56-13.98,75.67,20.04,94.93,38.07,19.27,18.02,34.86,59.31,31.98,88.53-2.25,17.71-8.16,36.19-20.51,41.14-12.35,4.95-22.68,5.9-41.5-5.72-23.29-14.39-22.49-20.46-44.24-44.07s-35.33-26.89-43.87-38.5c-8.53-11.6-11.6-13.97-11.19-32.2Z"/>
    </g>
    <g id="Green">
      <path class="cls-2" d="M513.3,272.42c24.55,29.21,56.25,63.39,70.85,91.36,14.61,27.97,24.32,65.91,23.28,95.32-.82,23.36-16.96,42.86-26.72,52.62-7.5,7.5-57.04,55.18-79.58,76.86l6.72-4.76s.04-.03.05-.04c3.88-2.73,15.85-9.08,43.2-9.08,24.37,0,49.93,13.43,70.89,37.59h0s0,0,0,0c31.89-53.77,50.19-116.55,50.19-183.6,0-19.05-1.49-37.75-4.33-56-14.17-29.76-32.82-56.78-55.62-80.48-26.9-27.95-58.18-49.89-92.99-65.19-8.14-3.58-16.41-6.74-24.77-9.52-2.81,2.33-4.54,27.11,18.82,54.91Z"/>
      <path class="cls-2" d="M113.22,508.58c0,7.07.23,14.11.69,21.1l25.89,2.54c2.68-23.37,13.07-45.01,29.96-61.89,19.77-19.77,46.05-30.65,74-30.65s54.24,10.89,74,30.65c5.37,5.37,10.09,11.23,14.11,17.47.63-3.64,1.16-6.65,1.35-7.43,19.89-79.55-94.05-107.73-118.09-120.16-21.1-10.91-36.13-34.6-39.48-40.21-15.97,21.17-29.13,44.37-39.29,69.33-15.36,37.74-23.15,77.87-23.15,119.26Z"/>
      <path class="cls-2" d="M449.28,279.77c-19.27-18.02-64.38-52.05-94.93-38.07-30.56,13.98-33.98,29-34.39,47.23-.41,18.23,2.65,20.6,11.19,32.2,8.53,11.6,22.11,14.88,43.87,38.5s20.96,29.68,44.24,44.07c18.81,11.63,29.15,10.67,41.5,5.72,12.35-4.95,18.26-23.42,20.51-41.14,2.87-29.21-12.71-70.5-31.98-88.53Z"/>
    </g>
    <g>
      <path id="Left_Leg" data-name="Left Leg" class="cls-4" d="M719.51,785.61l-96.22-35.75-35.02,47.87,115.5,33.67s29.83,12.02,36.46-13.05c6.63-25.07-20.72-32.73-20.72-32.73Z"/>
      <path id="Right_Leg" data-name="Right Leg" class="cls-4" d="M620.36,724.42l67.87,24.73s3.73-20.2-5.59-34.49c-9.32-14.29-77.69-92.91-77.69-92.91,0,0-26.1-27.66-51.9-27.97-25.79-.31-34.18,5.59-34.18,5.59l-14.79,10.48,45.5,78.8c7.98-7.23,16.83-15.32,16.83-15.32l44.41,44.98c4.45,2.6,7.76,4.86,9.53,6.11Z"/>
      <circle id="Face" class="cls-4" cx="243.75" cy="544.33" r="79.24"/>
      <path id="Torso" class="cls-4" d="M464.86,530.87c-5.9-35.58-50.03-26.41-59.98-22.84-9.94,3.57-57.03,24.79-57.03,24.79,0,0,.83,24.44.83,24.45l51.2-19.06s-93.59,155.04-209.22,96.36c-43.93-22.29-81.46-60.73-81.46-60.73l34.39,2.49s-3.61-15.16-4.25-24.99l-40.91-4.01s-34.39-4.97-48.89,26.52c-14.5,31.49,35.63,64.64,35.63,64.64,0,0,138.39,101.1,188.11,130.1,49.72,29,118.91,33.43,118.91,33.43-12.01-74.15-10.15-90.72,4.44-144.72l-15.63-14.67s88.9-81.36,83.86-111.75Z"/>
      <path id="Right_Reflection" data-name="Right Reflection" class="cls-4" d="M196.93,505.01c1.54-.71.68-3.06-.95-2.59-.1.03-8.98,2.53-11.69,11.54-1.48,4.94-.89,9.7,1.12,13.62.78,1.52,3.05.52,2.53-1.11-4.39-13.95,8.45-21.22,8.97-21.47Z"/>
      <path id="Left_Reflection" data-name="Left Reflection" class="cls-4" d="M270.68,501.43c1.54-.71.68-3.06-.95-2.59-.1.03-8.98,2.53-11.69,11.54-1.48,4.94-.89,9.7,1.12,13.62.78,1.52,3.05.52,2.53-1.11-4.39-13.95,8.45-21.22,8.97-21.47Z"/>
    </g>
    <g>
      <path class="cls-3" d="M246.04,594.48c.23,0,.46-.01.7-.02,28.98-.98,40.61-24.5,41.09-25.5,1.51-3.15.19-6.91-2.95-8.45-3.14-1.53-6.94-.22-8.49,2.91-.36.72-8.96,17.63-30.09,18.34-.17,0-.34.01-.51.01-20.01.43-26.46-13.89-26.77-14.59-1.34-3.22-5.03-4.76-8.26-3.44-3.25,1.32-4.81,5.03-3.48,8.28.39.95,9.75,23.08,38.76,22.45Z"/>
      <path class="cls-3" d="M744.62,777.99c-7.68-6.46-15.93-9.47-19.01-10.44l-21.43-7.96c1.37-2.09,2.33-4.45,2.8-6.97.52-2.83,4.73-28.27-8.37-48.37-2.41-3.69-8.02-10.85-15.22-19.66h0s0,0,0,0c30.15-51.26,47.54-111.52,47.54-176,0-186.63-145.57-337.92-325.13-337.92S81.08,321.96,80.66,508.58c-.02,6.82.19,13.61.58,20.36-5.33.86-11.28,2.41-17.33,5.13-14.05,6.3-25.01,17.29-31.68,31.8-5.38,11.68-5.8,24.71-1.21,37.7,3.17,8.96,8.74,18.04,16.57,26.96,11.21,12.79,24.05,21.79,26.63,23.54,3.84,2.8,30.48,22.23,63.5,45.73,0,0,0,0,.01,0,0,0,0,0-.01,0,58.61,88.6,156.81,146.7,268.08,146.7,53.1,0,103.22-13.25,147.49-36.72l-.22.14c-.53-.13,7.84,1.95,11.32,2.94,1.43.4,2.88.6,4.31.6,1.3,0,2.58-.16,3.82-.47l125.2,36.49c3.17,1.17,11.53,3.85,21.28,3.85,19.85,0,34.68-11.26,39.67-30.12,4.6-17.38-.52-33.87-14.03-45.23ZM682.64,714.66c9.32,14.29,5.59,34.49,5.59,34.49l-40.56-14.78-27.31-9.95c-1.77-1.26-5.08-3.51-9.53-6.11l-44.41-44.98s-8.85,8.1-16.83,15.32l-45.5-78.8,14.79-10.48s7.96-5.61,32.23-5.61c.64,0,1.29,0,1.95.01,25.79.31,51.9,27.97,51.9,27.97,0,0,46.06,52.97,67.72,79.86,4.73,5.87,8.3,10.5,9.97,13.06ZM136.37,389.32c14.81-36.39,36-69.07,62.98-97.11,26.9-27.95,58.18-49.89,92.99-65.19,35.93-15.79,74.1-23.8,113.45-23.8s77.52,8.01,113.45,23.8c34.8,15.3,66.09,37.23,92.99,65.19,22.8,23.7,41.45,50.71,55.62,80.48,2.85,18.25,4.33,36.95,4.33,56,0,67.05-18.31,129.83-50.2,183.6-20.96-24.16-46.51-37.59-70.89-37.59-27.35,0-39.32,6.35-43.2,9.08-.02.01-.04.03-.05.04l-16.65,11.8c-3.58-1.17-7.5-1.08-11.13.45-17.71,7.46-32.2,16.94-43.08,28.16-9.46,9.76-14.37,18.83-17.61,24.83-.3.55-.59,1.09-.86,1.59-.04,0-.09,0-.13-.01-1.03-4.26-3.5-8.08-7.04-10.75,8-7.94,17.86-18.08,27.67-29.05,13.21-14.77,23.61-28.03,30.91-39.41,11.37-17.74,15.73-31.62,13.73-43.68-4.42-26.63-25.01-42.53-55.09-42.53h0c-12.23,0-23.88,2.63-30.14,4.87-8.96,3.22-42.56,18.23-54.57,23.61-4.93-16.21-13.8-31.06-26.12-43.38-19.77-19.77-46.05-30.65-74-30.65s-54.24,10.89-74,30.65c-16.88,16.88-27.28,38.52-29.96,61.89l-25.89-2.54c-.45-6.99-.69-14.03-.69-21.1,0-41.39,7.79-81.52,23.15-119.26ZM261.71,522.89c.51,1.62-1.76,2.62-2.53,1.11-2.01-3.92-2.61-8.69-1.12-13.62,2.71-9,11.59-11.51,11.69-11.54,1.63-.47,2.49,1.88.95,2.59-.53.24-13.37,7.52-8.97,21.47ZM261.22,494.05c-5.3.85-5.56,2.33-18.25,3.46-12.74.18-13.14-1.27-18.51-1.57-17.31-.98-34.31.18-44.76,1.72,14.41-19.74,37.73-32.57,64.04-32.57,23.25,0,44.17,10.02,58.66,25.97-10.6-.2-25.86.53-41.19,2.99ZM187.96,526.48c.51,1.62-1.76,2.62-2.53,1.11-2.01-3.92-2.61-8.69-1.12-13.62,2.71-9,11.59-11.51,11.69-11.54,1.63-.47,2.49,1.88.95,2.59-.53.24-13.37,7.52-8.97,21.47ZM187.14,545.58c7.65,5.61,31.24,3.27,38.79-.95,10.27-5.73,11.13-17.7,12.41-25.19.65-3.8,4.62-4.31,5.54-4.36.93-.05,4.92.05,5.96,3.76,2.05,7.32,4.14,19.13,14.93,23.78,7.94,3.42,31.64,3.32,38.68-3.04,7.11-6.43,7.13-26.77,7.96-29.96.4-1.56.99-2.78,1.64-3.76,6.33,11.39,9.95,24.5,9.95,38.46,0,43.76-35.48,79.24-79.24,79.24s-79.24-35.48-79.24-79.24c0-11.93,2.64-23.24,7.36-33.39,1.41,1.02,3.15,2.62,4.27,5.65,1.15,3.09,3.26,23.32,10.99,28.99ZM396.63,657.28c-14.59,54-16.45,70.57-4.44,144.72,0,0-69.19-4.43-118.91-33.43-49.72-29-188.11-130.1-188.11-130.1,0,0-50.13-33.15-35.63-64.64,14.5-31.49,48.89-26.52,48.89-26.52l40.91,4.01c.65,9.84,4.25,24.99,4.25,24.99l-34.39-2.49s37.54,38.43,81.46,60.73c115.63,58.68,209.23-96.38,209.22-96.36l-51.2,19.06s-.83-24.44-.83-24.45c0,0,47.09-21.21,57.03-24.79,9.94-3.57,54.07-12.74,59.98,22.84,5.04,30.38-83.86,111.75-83.86,111.75l15.63,14.67ZM473.81,795.92c-26.52,12.43-63.81,6.63-63.81,6.63,0,0-9.89-35.63-10.12-73.75-.24-38.12,10.12-63.81,10.12-63.81,0,0,14.92,5.39,20.72-3.73,5.8-9.12,13.26-32.73,55.52-50.55l57.11,98.91c-2.59,1.77-4.9,3.49-8.96,7.5-6.97,6.89-14.11,16.34-21.59,28.54-9.08,14.79-16.05,29.4-18.55,34.82-5.84,6.3-12.59,11.76-20.44,15.44ZM568.7,797.58s-27.14-7.67-40.19-7.87-20.72-.62-20.72-.62c0,0,31.28-70.64,55.31-70.23s49.1,19.27,49.1,19.27l-43.51,59.46ZM740.23,818.34c-3.38,12.8-12.82,15.93-21.24,15.93s-15.22-2.88-15.22-2.88l-115.5-33.67,15.36-20.99,19.67-26.88,7.4,2.75,88.83,33s27.35,7.67,20.72,32.73Z"/>
    </g>
  </g>
</svg>