<?xml version="1.0" encoding="UTF-8"?>
<svg xmlns="http://www.w3.org/2000/svg" viewBox="0 0 1537 1024">
  <defs>
    <style>
      .cls-1 {
        fill: #33bce6;
      }

      .cls-1, .cls-2, .cls-3, .cls-4 {
        stroke-width: 0px;
      }

      .cls-2 {
        fill: #84c857;
      }

      .cls-3 {
        fill: #122543;
      }

      .cls-4 {
        fill: #fff;
      }
    </style>
  </defs>
  <g id="Background">
    <rect class="cls-4" width="1524.33" height="1024"/>
  </g>
  <g id="Layer_2" data-name="Layer 2">
    <g id="Logo">
      <g>
        <path id="Right_Leg" data-name="Right Leg" class="cls-4" d="M534.94,660.81l47.55,17.33s2.61-14.15-3.92-24.16-54.42-65.09-54.42-65.09c0,0-18.29-19.38-36.36-19.59s-23.95,3.92-23.95,3.92l-10.36,7.34,31.88,55.2c5.59-5.06,11.79-10.74,11.79-10.74l31.11,31.51c3.12,1.82,5.44,3.4,6.68,4.28Z"/>
        <path id="Left_Leg" data-name="Left Leg" class="cls-4" d="M604.41,703.68l-67.41-25.05-24.54,33.53,80.92,23.59s20.9,8.42,25.54-9.14c4.64-17.56-14.51-22.93-14.51-22.93Z"/>
        <path id="Torso" class="cls-4" d="M426.01,525.22c-4.14-24.93-35.05-18.5-42.02-16s-39.96,17.36-39.96,17.36l.02.71c.24,2.43.36,4.88.36,7.36,0,.75-.02,1.5-.04,2.25l.23,6.81,35.87-13.35s-52.7,77.5-107.27,78.37c-6.09.1-12.36-.88-18.64-2.63-7.28-1.67-14.24-4.45-20.66-8.24-30.77-15.62-57.07-42.54-57.07-42.54l24.09,1.74-.2-1.76c-1.49-5.09-2.42-10.36-2.77-15.75l-28.66-2.81s-24.09-3.48-34.25,18.58c-10.16,22.06,24.96,45.28,24.96,45.28,0,0,96.95,70.82,131.78,91.14,34.83,20.32,83.6,22.42,83.6,22.42,0,0-5.52-20.1-6.39-56.09-.87-35.99,11.48-45.82,11.48-45.82l-13.22-8.75s62.28-57,58.75-78.28Z"/>
        <circle id="Face" class="cls-4" cx="271.11" cy="534.65" r="55.51"/>
        <path id="Left_Reflection" data-name="Left Reflection" class="cls-4" d="M284.55,509.76c.97-2.02,2.57-3.67,4.55-4.74.29-.16.58-.3.87-.44,1.08-.5.48-2.14-.66-1.81-.05.02-.11.03-.16.05-3.84,1.16-6.87,4.2-8.03,8.04-1.04,3.46-.62,6.8.79,9.54.54,1.06,2.13.36,1.78-.77-.93-2.96-.8-6.4.86-9.87Z"/>
        <path id="Right_Reflection" data-name="Right Reflection" class="cls-4" d="M232.89,512.28c.97-2.02,2.57-3.67,4.55-4.74.29-.16.58-.3.87-.44,1.08-.5.48-2.14-.66-1.81-.05.02-.11.03-.16.05-3.84,1.16-6.87,4.2-8.03,8.04-1.04,3.46-.62,6.8.79,9.54.54,1.06,2.13.36,1.78-.77-.93-2.96-.8-6.4.86-9.87Z"/>
      </g>
      <g>
        <path class="cls-2" d="M415.1,349.31c-13.5-12.63-45.1-36.46-66.51-26.67-21.41,9.8-23.8,20.32-24.09,33.09-.29,12.77,1.86,14.43,7.84,22.56s15.49,10.42,30.73,26.97,14.68,20.79,31,30.88c13.18,8.15,20.42,7.47,29.07,4.01,8.65-3.46,12.79-16.41,14.37-28.82,2.01-20.46-8.91-49.39-22.4-62.02Z"/>
        <path class="cls-2" d="M571.25,453.64c0-13.34-1.04-26.44-3.04-39.23-.01-.02-.02-.05-.03-.07-.6-1.26-1.22-2.52-1.84-3.77-.02-.04-.04-.08-.06-.11-.63-1.25-1.26-2.49-1.91-3.72-.02-.04-.05-.09-.07-.13-.65-1.23-1.3-2.44-1.97-3.66-.03-.06-.06-.11-.09-.17-.66-1.19-1.33-2.38-2.01-3.56-.05-.08-.09-.16-.14-.24-.67-1.16-1.35-2.3-2.04-3.45-.06-.11-.13-.21-.19-.32-.68-1.11-1.36-2.22-2.05-3.32-.09-.14-.18-.28-.27-.42-.68-1.06-1.36-2.12-2.05-3.17-.12-.18-.24-.35-.35-.53-.67-1.01-1.35-2.02-2.04-3.02-.15-.22-.31-.44-.46-.66-.66-.95-1.33-1.9-2.01-2.84-.19-.27-.39-.53-.58-.8-.65-.89-1.3-1.78-1.96-2.66-.24-.32-.49-.63-.73-.95-.62-.82-1.25-1.64-1.89-2.46-.3-.38-.6-.75-.9-1.13-.59-.75-1.19-1.5-1.79-2.24-.36-.44-.73-.88-1.1-1.32-.56-.67-1.11-1.34-1.67-2-.44-.52-.89-1.03-1.34-1.54-.5-.58-1-1.16-1.5-1.73-.57-.64-1.16-1.28-1.74-1.92-.4-.44-.79-.88-1.19-1.31-.99-1.07-1.99-2.13-3-3.18-18.84-19.58-40.76-34.95-65.14-45.67-1.03-.45-2.06-.89-3.09-1.32-.24-.1-.48-.2-.73-.3-1.01-.42-2.01-.83-3.02-1.23-.02,0-.04-.02-.06-.02-1.11-.44-2.21-.86-3.33-1.28-.11-.04-.22-.08-.32-.12-1.1-.41-2.19-.81-3.29-1.2,0,0,0,0,0,0-1.16-.25-2.29-.45-3.39-.61-2.1,0-4.14,17.42,13.06,37.88,17.2,20.46,39.4,44.41,49.64,64,10.23,19.59,17.03,46.17,16.31,66.78-.58,16.37-11.88,30.03-18.72,36.86-5.26,5.25-39.96,38.66-55.75,53.84l4.71-3.34s.03-.02.04-.03c2.72-1.91,11.11-6.36,30.27-6.36.5,0,1.01,0,1.53,0,23.07.28,43.64,21.37,45.9,23.78.12.13.25.27.37.4.39.45,1.03,1.18,1.86,2.14,22.34-37.67,35.16-81.65,35.16-128.62Z"/>
        <path class="cls-2" d="M198.28,526.17c1.87-16.37,9.16-31.53,20.99-43.36,13.85-13.85,32.26-21.47,51.84-21.47s37.99,7.63,51.84,21.47c3.55,3.55,6.68,7.4,9.38,11.48.58-1.43,1.07-2.92,1.45-4.45,13.93-55.73-65.89-75.47-82.73-84.18-14.78-7.65-25.31-24.24-27.66-28.17-.86,1.14-1.71,2.3-2.55,3.46-.28.39-.56.78-.84,1.17-.68.95-1.34,1.9-2,2.86-.2.28-.4.57-.59.85-.81,1.19-1.6,2.38-2.39,3.59-.24.37-.49.75-.73,1.13-.62.97-1.23,1.94-1.84,2.91-.2.33-.41.66-.61.99-.76,1.24-1.5,2.48-2.23,3.73-.2.34-.39.68-.59,1.03-.59,1.02-1.17,2.04-1.74,3.07-.19.35-.39.7-.58,1.05-.71,1.29-1.4,2.59-2.09,3.89-.15.28-.29.56-.43.84-.57,1.1-1.13,2.2-1.68,3.31-.18.36-.36.72-.54,1.09-.66,1.35-1.3,2.7-1.94,4.06-.08.18-.16.36-.24.53-.56,1.22-1.11,2.45-1.65,3.68-.16.37-.32.74-.48,1.11-.6,1.4-1.2,2.81-1.78,4.22-.57,1.39-1.11,2.78-1.65,4.18-.06.16-.12.32-.18.48-.51,1.33-1,2.66-1.48,4-.08.22-.16.44-.24.66-.47,1.32-.92,2.64-1.36,3.96-.07.22-.15.45-.22.67-.44,1.34-.88,2.69-1.29,4.04-.05.17-.11.35-.16.52-.43,1.41-.85,2.83-1.26,4.26,0,.03-.02.06-.03.1-.41,1.44-.8,2.88-1.18,4.33-.03.12-.06.24-.09.36-.36,1.4-.71,2.81-1.05,4.22-.05.2-.09.39-.14.59-.33,1.38-.64,2.77-.93,4.16-.04.21-.09.42-.13.63-.3,1.4-.58,2.8-.85,4.21-.03.17-.06.34-.09.5-.28,1.46-.54,2.93-.79,4.4,0,.04-.01.09-.02.13-.25,1.52-.49,3.04-.71,4.56,0,.06-.02.11-.02.17-.22,1.48-.41,2.96-.6,4.45-.02.16-.04.32-.06.49-.18,1.44-.34,2.89-.49,4.34-.02.19-.04.38-.06.57-.15,1.45-.28,2.91-.39,4.36-.01.16-.02.32-.04.48-.12,1.5-.22,3.01-.31,4.52,0,.06,0,.12,0,.18-.09,1.58-.17,3.17-.22,4.75.02,1.85-.03,3.63-.13,5.34-.01.99-.02,1.98-.02,2.97,0,4.95.16,9.88.48,14.78l18.14,1.78Z"/>
      </g>
      <g>
        <path class="cls-1" d="M474.72,655.7c1.43-1.46,2.74-2.59,3.8-3.41.83-.67,1.65-1.28,2.48-1.84l-40.01-69.29c-29.61,12.48-34.83,29.03-38.9,35.41-4.06,6.39-14.51,2.61-14.51,2.61,0,0-7.26,18-7.09,44.7.17,26.7,7.09,51.67,7.09,51.67,0,0,26.12,4.06,44.7-4.64,5.5-2.58,10.23-6.4,14.32-10.82,1.75-3.79,6.63-14.03,12.99-24.39,5.24-8.54,10.25-15.17,15.13-19.99Z"/>
        <path class="cls-1" d="M494.83,656.91c-16.84-.29-38.75,49.2-38.75,49.2,0,0,5.37.29,14.51.44,9.14.15,28.16,5.51,28.16,5.51l30.48-41.65s-17.56-13.21-34.4-13.5Z"/>
        <path class="cls-1" d="M251.06,405.66c16.84,8.71,96.66,28.45,82.73,84.18-.39,1.54-.87,3.03-1.44,4.47,3.88,5.86,6.87,12.21,8.91,18.89,8.41-3.77,31.95-14.29,38.23-16.54,4.38-1.58,12.54-3.41,21.11-3.41h0c21.07,0,35.5,11.14,38.59,29.8,1.4,8.45-1.65,18.17-9.62,30.6-5.11,7.97-12.39,17.26-21.65,27.61-6.87,7.68-13.78,14.79-19.39,20.35,2.48,1.87,4.21,4.54,4.93,7.53.03,0,.06,0,.09,0,.19-.35.4-.73.6-1.11,2.27-4.2,5.71-10.56,12.34-17.39,7.62-7.86,17.77-14.5,30.18-19.73,1.41-.59,2.87-.88,4.32-.88,1.19,0,2.36.19,3.48.56l6.96-4.93c15.79-15.19,50.49-48.59,55.75-53.84,6.84-6.84,18.15-20.5,18.72-36.86.73-20.61-6.08-47.19-16.31-66.78-10.23-19.59-32.44-43.54-49.64-64-17.2-20.46-15.17-37.88-13.06-37.88,1.1.15,2.23.36,3.39.61-21.05-7.44-43.07-11.2-65.64-11.2-27.57,0-54.31,5.61-79.48,16.67-24.38,10.72-46.3,26.08-65.14,45.67-5.94,6.17-11.48,12.67-16.6,19.46,2.35,3.94,12.88,20.53,27.66,28.17ZM324.5,355.74c.29-12.77,2.68-23.29,24.09-33.09,21.41-9.8,53.01,14.04,66.51,26.67,13.5,12.63,24.42,41.55,22.4,62.02-1.58,12.41-5.71,25.35-14.37,28.82-8.65,3.47-15.89,4.14-29.07-4.01-16.31-10.08-15.76-14.33-31-30.88s-24.75-18.84-30.73-26.97-8.13-9.79-7.84-22.56Z"/>
      </g>
      <g>
        <path class="cls-3" d="M272.71,569.78c.16,0,.32,0,.49-.01,20.3-.69,28.45-17.17,28.79-17.87,1.06-2.21.13-4.84-2.07-5.92-2.2-1.07-4.86-.15-5.95,2.04-.25.5-6.27,12.35-21.08,12.85-.12,0-.24,0-.36,0-14.02.3-18.54-9.73-18.75-10.22-.94-2.25-3.52-3.33-5.79-2.41-2.28.93-3.37,3.53-2.44,5.8.27.67,6.83,16.17,27.15,15.73Z"/>
        <path class="cls-3" d="M622,698.34c-5.38-4.52-11.16-6.64-13.32-7.32l-15.02-5.58c.96-1.47,1.63-3.12,1.96-4.88.37-1.99,3.32-19.8-5.86-33.88-1.69-2.59-5.62-7.61-10.67-13.78,0,0,0,0,0,0,21.12-35.91,33.3-78.13,33.3-123.3,0-1.02,0-2.05-.02-3.07,0-.21,0-.42-.01-.64-.01-.81-.02-1.61-.04-2.42,0-.31-.02-.62-.03-.93-.02-.71-.04-1.42-.06-2.12-.01-.32-.03-.64-.04-.97-.03-.69-.06-1.38-.09-2.07-.02-.35-.04-.7-.06-1.05-.04-.66-.07-1.32-.11-1.98-.02-.36-.05-.72-.07-1.07-.04-.65-.08-1.3-.13-1.95-.03-.36-.06-.73-.09-1.09-.05-.64-.1-1.28-.15-1.92-.03-.37-.07-.74-.1-1.1-.06-.63-.11-1.26-.17-1.89-.04-.36-.07-.72-.11-1.07-.07-.64-.13-1.28-.2-1.92-.04-.34-.08-.68-.12-1.03-.07-.65-.15-1.3-.23-1.95-.04-.34-.09-.67-.13-1-.08-.65-.17-1.31-.25-1.96-.04-.33-.09-.66-.14-.99-.09-.65-.18-1.31-.28-1.96-.05-.32-.1-.65-.15-.97-.1-.66-.2-1.32-.3-1.97-.05-.31-.1-.62-.15-.93-.11-.67-.22-1.33-.33-2-.05-.3-.11-.6-.16-.91-.12-.67-.24-1.34-.36-2.01-.05-.29-.11-.57-.16-.86-.13-.68-.26-1.37-.39-2.05-.05-.28-.11-.55-.17-.83-.14-.69-.28-1.38-.42-2.06-.06-.27-.12-.54-.17-.8-.15-.69-.3-1.39-.45-2.08-.06-.26-.12-.52-.18-.78-.16-.7-.32-1.39-.48-2.09-.06-.25-.12-.5-.18-.75-.17-.7-.34-1.4-.51-2.1-.06-.24-.12-.48-.18-.72-.18-.71-.36-1.42-.54-2.13-.06-.22-.12-.44-.18-.66-.19-.72-.38-1.45-.58-2.17-.06-.21-.12-.42-.18-.63-.2-.73-.41-1.46-.61-2.18-.06-.2-.12-.4-.18-.61-.21-.73-.43-1.46-.64-2.19-.06-.19-.12-.38-.18-.58-.22-.74-.45-1.48-.68-2.21-.06-.18-.11-.35-.17-.53-.24-.75-.47-1.5-.72-2.24-.05-.17-.11-.33-.16-.5-.25-.75-.5-1.51-.75-2.26-.05-.16-.11-.31-.16-.47-.26-.76-.52-1.51-.79-2.27-.05-.15-.11-.3-.16-.45-.27-.76-.54-1.52-.82-2.27-.05-.14-.1-.28-.16-.42-.28-.77-.57-1.53-.86-2.29-.05-.13-.1-.26-.15-.38-.3-.77-.59-1.54-.9-2.31-.04-.11-.09-.23-.14-.34-.31-.78-.62-1.56-.94-2.33-.04-.11-.09-.22-.14-.33-.32-.78-.64-1.56-.97-2.33-.04-.1-.08-.2-.13-.3-.33-.78-.67-1.57-1.01-2.35-.04-.09-.08-.18-.12-.26-.35-.79-.69-1.58-1.05-2.36-.04-.08-.08-.17-.11-.25-.36-.79-.72-1.58-1.08-2.36-.03-.07-.07-.15-.1-.22-.37-.79-.74-1.58-1.12-2.37-.03-.06-.06-.13-.09-.19-.38-.8-.77-1.59-1.16-2.38-.03-.06-.06-.11-.09-.17-.4-.8-.8-1.59-1.2-2.38-.02-.05-.05-.1-.07-.14-.41-.8-.82-1.6-1.24-2.39-.02-.04-.05-.09-.07-.13-.42-.8-.84-1.6-1.27-2.39-.02-.03-.04-.07-.06-.1-.43-.8-.87-1.6-1.32-2.4-.01-.02-.03-.05-.04-.07-.45-.8-.9-1.6-1.36-2.4-.01-.02-.03-.05-.04-.07-.46-.8-.92-1.59-1.38-2.39-.01-.02-.02-.04-.03-.06-.47-.8-.94-1.59-1.42-2.39,0,0-.01-.02-.02-.03-.48-.8-.97-1.6-1.46-2.39,0,0-.01-.02-.02-.02-.49-.8-.99-1.59-1.49-2.38h0c-.51-.8-1.02-1.59-1.53-2.38,0,0,0,0,0,0-40.98-62.68-110.13-103.85-188.53-103.85-125.79,0-227.77,105.99-227.77,236.73,0,4.79.14,9.54.41,14.26-3.73.6-7.9,1.69-12.14,3.59-9.84,4.41-17.52,12.11-22.2,22.27-3.77,8.18-4.06,17.31-.85,26.41,2.22,6.28,6.12,12.64,11.61,18.89,7.86,8.96,16.85,15.27,18.65,16.49,2.69,1.96,21.36,15.58,44.49,32.04,0,0-.02-.01-.02-.02,14.43,21.82,32.29,41,52.77,56.7.07.06.15.11.22.17,1.2.92,2.41,1.83,3.64,2.72.06.05.12.09.19.14,2.5,1.83,5.03,3.6,7.59,5.33.04.03.08.05.12.08,1.26.84,2.52,1.67,3.79,2.49.1.06.2.13.3.19,1.28.82,2.57,1.63,3.86,2.42.01,0,.03.02.04.03,2.63,1.61,5.3,3.17,8,4.67.11.06.23.13.34.19,1.3.72,2.61,1.43,3.92,2.12.1.05.2.11.31.16,2.69,1.41,5.41,2.78,8.16,4.08.1.05.19.09.29.14,1.33.63,2.67,1.25,4.02,1.85.15.07.31.14.46.2,1.36.6,2.72,1.2,4.08,1.78.06.03.13.05.19.08,1.41.59,2.82,1.17,4.24,1.73.03.01.06.02.09.04,1.38.55,2.77,1.08,4.16,1.6.17.07.35.13.52.2,1.36.5,2.73,1,4.1,1.47.16.06.32.11.49.17,2.83.98,5.68,1.9,8.55,2.76.16.05.33.1.49.15,1.38.41,2.77.81,4.16,1.19.22.06.43.12.65.18,1.4.38,2.81.76,4.23,1.11.12.03.24.06.36.09,1.41.35,2.82.69,4.24,1.02.11.02.21.05.32.07,1.42.32,2.85.63,4.28.93.24.05.47.1.71.15,1.4.29,2.81.56,4.22.82.22.04.43.08.65.12,2.94.53,5.89,1,8.87,1.41.22.03.44.06.66.09,1.42.19,2.85.37,4.28.53.26.03.53.06.79.09,1.45.16,2.9.31,4.36.44.16.01.32.03.48.04,1.42.13,2.85.24,4.28.34.16.01.31.02.47.03,1.46.1,2.93.18,4.4.25.27.01.55.03.82.04,1.45.06,2.9.11,4.36.15.24,0,.49,0,.73.01,1.52.03,3.05.05,4.58.05,37.14,0,72.2-9.24,103.17-25.62-.37-.09,5.49,1.37,7.93,2.06,1,.28,2.02.42,3.02.42.91,0,1.81-.11,2.68-.33l87.71,25.57c2.22.82,8.08,2.7,14.91,2.7,13.91,0,24.29-7.89,27.79-21.1,3.22-12.18-.36-23.73-9.83-31.69ZM497.15,625.02s-6.2,5.67-11.79,10.73l-31.88-55.2,10.36-7.34s5.58-3.93,22.58-3.93c.45,0,.9,0,1.37,0,18.07.22,36.36,19.59,36.36,19.59,0,0,47.89,55.08,54.42,65.09,6.53,10.01,3.92,24.16,3.92,24.16l-47.55-17.33c-1.24-.88-3.56-2.46-6.68-4.28l-31.11-31.51ZM391.3,620.06c.86.13,1.81.22,2.8.22,2.92,0,6.13-.79,7.99-3.72,3.56-5.6,8.02-19,29-30.63.74-.41,1.49-.81,2.27-1.22.01,0,.02-.01.03-.02.38-.2.77-.39,1.16-.59.02,0,.04-.02.06-.03.38-.19.77-.38,1.16-.57.06-.03.12-.06.17-.08.36-.17.71-.34,1.08-.51.13-.06.27-.12.4-.18.29-.14.59-.27.88-.41.27-.12.55-.24.82-.36.17-.07.34-.15.51-.22.45-.2.9-.39,1.36-.59l40.01,69.29c-.82.56-1.65,1.18-2.48,1.84h0s0,0,0,0c-.25.2-.52.42-.81.65-.02.01-.03.03-.05.04-.28.23-.57.48-.88.75-.02.02-.03.03-.05.05-.31.27-.62.56-.95.87-.01.01-.02.02-.04.03-.33.32-.68.65-1.03,1.01,0,0,0,0,0,0,0,0,0,0,0,0-4.88,4.82-9.88,11.45-15.12,19.99-6.36,10.36-11.24,20.6-12.99,24.39-4.09,4.41-8.82,8.24-14.32,10.82-9.61,4.5-21.24,5.59-30.22,5.59-6.29,0-11.28-.53-13.39-.8h0c-.7-.09-1.09-.15-1.09-.15,0,0-.06-.22-.17-.64-.04-.14-.08-.3-.13-.49-.28-1.1-.75-2.98-1.31-5.48-.09-.42-.19-.85-.29-1.3-.25-1.13-.5-2.36-.77-3.68-1.97-9.79-4.33-24.64-4.42-40.08-.17-26.7,7.09-44.7,7.09-44.7,0,0,.03,0,.06.02,0,0,.01,0,.02,0,.33.11,1.74.57,3.61.85M553.59,602.58s0,0,0,0c0,0,0,0,0,0ZM559.73,609.77s.02.03.04.04c-.01-.01-.02-.03-.04-.04ZM179.66,509.61c0-29,5.46-57.11,16.22-83.55,10.38-25.5,25.22-48.38,44.12-68.03,18.84-19.58,40.76-34.95,65.14-45.67,25.17-11.06,51.91-16.67,79.48-16.67s54.31,5.61,79.48,16.67c24.38,10.72,46.3,26.08,65.14,45.67,15.97,16.6,29.04,35.53,38.97,56.38,1.99,12.79,3.04,25.89,3.04,39.23,0,46.97-12.83,90.95-35.16,128.62-.84-.96-1.47-1.69-1.86-2.14-.12-.14-.24-.27-.37-.4-2.27-2.4-22.84-23.5-45.9-23.78-.52,0-1.03,0-1.53,0-19.16,0-27.55,4.45-30.27,6.36-.01,0-.03.02-.04.03l-11.66,8.27c-1.12-.37-2.29-.56-3.48-.56-1.45,0-2.91.28-4.32.88-12.41,5.23-22.56,11.87-30.18,19.73-6.63,6.84-10.06,13.19-12.34,17.39-.21.38-.41.76-.6,1.11-.03,0-.06,0-.09,0-.72-2.99-2.45-5.66-4.93-7.53,5.6-5.56,12.51-12.67,19.39-20.35,9.26-10.35,16.54-19.64,21.65-27.61,7.96-12.43,11.02-22.15,9.62-30.6-3.1-18.66-17.52-29.8-38.59-29.8h0c-8.57,0-16.73,1.84-21.11,3.41-6.28,2.26-29.82,12.77-38.23,16.54-3.46-11.35-9.67-21.76-18.3-30.39-13.85-13.85-32.26-21.47-51.84-21.47s-37.99,7.63-51.84,21.47c-11.83,11.83-19.11,26.99-20.99,43.36l-18.14-1.78c-.32-4.9-.48-9.83-.48-14.78ZM283.69,519.63c.36,1.14-1.23,1.84-1.78.77-1.41-2.75-1.83-6.08-.79-9.54,1.15-3.84,4.19-6.88,8.03-8.04.05-.02.11-.03.16-.05,1.14-.33,1.74,1.32.66,1.81-.29.13-.58.28-.87.44-1.98,1.06-3.58,2.71-4.55,4.74-1.66,3.46-1.8,6.9-.86,9.87ZM283.35,499.42c-3.71.6-3.89,1.63-12.78,2.43-8.92.13-9.21-.89-12.97-1.1-12.13-.69-24.04.13-31.36,1.21,10.1-13.83,26.43-22.82,44.86-22.82,16.29,0,30.94,7.02,41.1,18.19-7.42-.14-18.11.37-28.86,2.1ZM232.02,522.14c.36,1.14-1.23,1.84-1.78.77-1.41-2.75-1.83-6.08-.79-9.54,1.15-3.84,4.19-6.88,8.03-8.04.05-.02.11-.03.16-.05,1.14-.33,1.74,1.32.66,1.81-.29.13-.58.28-.87.44-1.98,1.06-3.58,2.71-4.55,4.74-1.66,3.46-1.8,6.9-.86,9.87ZM231.45,535.52c5.36,3.93,21.89,2.29,27.17-.66,7.19-4.01,7.8-12.4,8.69-17.65.46-2.66,3.23-3.02,3.88-3.05.65-.03,3.45.04,4.18,2.64,1.43,5.13,2.9,13.4,10.46,16.66,5.56,2.39,22.17,2.33,27.1-2.13,4.98-4.5,5-18.75,5.57-20.99.28-1.09.7-1.95,1.15-2.63,4.44,7.98,6.97,17.16,6.97,26.94,0,30.66-24.85,55.51-55.51,55.51s-55.51-24.85-55.51-55.51c0-8.36,1.85-16.28,5.16-23.39.99.71,2.2,1.83,2.99,3.96.8,2.17,2.29,16.34,7.7,20.31ZM159.6,523.54s0,0,0,0c0,0,0,0,0,0ZM135.05,555.32c7.72-16.76,23.49-18.78,30.61-18.78,2.25,0,3.64.2,3.64.2l28.66,2.81c.35,5.39,1.29,10.66,2.77,15.75l.2,1.76-24.09-1.74s26.28,26.9,57.04,42.52c6.47,3.83,13.49,6.62,20.84,8.29,5.95,1.64,11.88,2.6,17.66,2.6.28,0,.56,0,.83,0,54.57-.87,107.27-78.37,107.27-78.37l-35.87,13.35s-.19-8.31-.19-9.06c0-2.47-.12-4.93-.36-7.36l-.02-.71s32.99-14.86,39.96-17.36c2.79-1,9.4-2.63,16.6-2.63,10.81,0,22.94,3.67,25.42,18.63,3.53,21.28-58.75,78.28-58.75,78.28l13.22,8.75s-12.35,9.83-11.48,45.82c.87,35.99,6.39,56.09,6.39,56.09,0,0-48.76-2.1-83.6-22.42-34.83-20.32-131.78-91.14-131.78-91.14,0,0-35.12-23.22-24.96-45.28ZM498.75,712.06s-4.94-1.39-10.99-2.78c0,0,0,0,0,0-5.82-1.33-12.68-2.66-17.16-2.73-8.53-.14-13.78-.4-14.44-.43-.02,0-.03,0-.04,0-.01,0-.03,0-.03,0,0,0,0-.02.02-.05,0-.02.02-.05.04-.08,0,0,0-.01,0-.02.01-.03.03-.07.05-.11.01-.03.03-.06.05-.1.03-.06.05-.11.08-.18,0-.02.02-.04.02-.05.03-.06.06-.13.09-.2.02-.04.04-.09.06-.13.02-.05.05-.11.07-.16.03-.06.05-.12.08-.18.04-.09.09-.2.14-.3.04-.08.07-.16.11-.24.03-.06.06-.13.09-.2.04-.09.08-.18.12-.27.03-.06.06-.12.08-.18.05-.1.1-.2.15-.31.02-.05.05-.1.07-.15.11-.23.22-.47.34-.72.02-.04.03-.07.05-.11.06-.12.12-.25.18-.38.03-.07.06-.14.1-.2.06-.13.13-.26.19-.4.03-.06.06-.13.09-.19.23-.48.48-.98.74-1.51.03-.06.06-.12.09-.18.08-.17.17-.34.25-.51.03-.06.06-.12.09-.18.3-.6.61-1.23.94-1.88.01-.02.02-.05.04-.07.1-.2.21-.41.32-.62.03-.06.06-.11.09-.17.11-.21.22-.43.33-.65,0-.01.01-.02.02-.04.37-.71.75-1.44,1.15-2.2.03-.05.05-.1.08-.15.12-.23.25-.47.38-.71.02-.03.04-.07.06-.1.41-.76.83-1.54,1.27-2.34.02-.03.03-.06.05-.09.14-.25.28-.5.42-.76.03-.05.05-.1.08-.15.6-1.08,1.22-2.18,1.87-3.29.03-.05.06-.11.09-.16.15-.26.31-.53.46-.8,0-.01.01-.02.02-.03.5-.84,1-1.69,1.52-2.54.03-.05.06-.1.09-.14.16-.26.32-.53.49-.79.03-.04.05-.09.08-.13.51-.83,1.04-1.66,1.57-2.49.02-.04.05-.07.07-.11.17-.26.33-.52.5-.77.04-.06.08-.12.12-.18.72-1.1,1.46-2.19,2.21-3.26.05-.06.09-.13.14-.19.17-.24.34-.49.51-.73.03-.04.06-.09.09-.13.55-.76,1.1-1.51,1.65-2.25.05-.07.1-.14.16-.21.17-.22.34-.44.51-.66.05-.07.11-.14.16-.2.55-.7,1.1-1.38,1.65-2.05.05-.06.1-.12.16-.19.17-.2.33-.39.5-.59.07-.08.13-.16.2-.23.17-.19.33-.39.5-.57.04-.05.08-.09.12-.14.35-.39.7-.77,1.05-1.15.04-.05.09-.1.13-.14.16-.17.32-.34.48-.5.08-.08.16-.16.24-.25.16-.16.31-.32.47-.47.93-.91,1.86-1.75,2.78-2.51.26-.21.51-.41.77-.6.01-.01.03-.02.04-.03.25-.19.49-.37.74-.54.02-.02.05-.03.07-.05.24-.17.48-.33.71-.48.03-.02.06-.04.1-.06.23-.15.46-.29.7-.43,2.1-1.23,4.18-1.94,6.18-1.94.05,0,.1,0,.15,0,7.08.12,14.28,2.53,20.26,5.28,6.66,3.06,11.8,6.55,13.51,7.77.02.01.03.02.05.03.1.07.18.13.25.18.02.01.04.03.05.04,0,0,.01.01.02.01.03.02.06.04.09.06.04.03.08.06.1.08.01,0,.02.01.03.02.01,0,.03.02.03.02l-1.46,2h0s-1.61,2.2-1.61,2.2l-8.34,11.4-19.07,26.06ZM618.92,726.61c-2.37,8.96-8.98,11.16-14.88,11.16s-10.66-2.02-10.66-2.02l-80.92-23.59,24.54-33.53,67.41,25.05s19.16,5.37,14.51,22.93Z"/>
      </g>
    </g>
    <g>
      <path class="cls-3" d="M752.64,406.21h-30.4v-75.4c1.33-.27,3.37-.6,6.1-1,2.73-.4,5.37-.6,7.9-.6,5.87,0,10.07,1,12.6,3,2.53,2,3.8,5.8,3.8,11.4v62.6ZM722.24,367.81h30.4v84.4c-1.2.4-3.13.77-5.8,1.1-2.67.33-5.4.5-8.2.5-6,0-10.23-1.07-12.7-3.2-2.47-2.13-3.7-5.87-3.7-11.2v-71.6ZM814.24,403.61h-78.2v-24.2h78.2v24.2ZM827.44,406.21h-30.6v-75.4c1.47-.27,3.53-.6,6.2-1,2.67-.4,5.33-.6,8-.6,5.73,0,9.9,1.03,12.5,3.1,2.6,2.07,3.9,5.9,3.9,11.5v62.4ZM796.84,367.81h30.6v84.4c-1.33.4-3.33.77-6,1.1-2.67.33-5.4.5-8.2.5-6,0-10.23-1.07-12.7-3.2-2.47-2.13-3.7-5.87-3.7-11.2v-71.6Z"/>
      <path class="cls-3" d="M950.24,404.41c0,10.4-2.1,19.43-6.3,27.1-4.2,7.67-10.1,13.57-17.7,17.7-7.6,4.13-16.53,6.2-26.8,6.2s-19.2-2.03-26.8-6.1c-7.6-4.07-13.5-9.93-17.7-17.6-4.2-7.67-6.3-16.77-6.3-27.3s2.13-19.4,6.4-27c4.27-7.6,10.23-13.5,17.9-17.7,7.67-4.2,16.57-6.3,26.7-6.3s18.97,2.1,26.5,6.3c7.53,4.2,13.43,10.13,17.7,17.8,4.27,7.67,6.4,16.63,6.4,26.9ZM899.44,376.81c-6.27,0-11.23,2.4-14.9,7.2-3.67,4.8-5.5,11.6-5.5,20.4s1.8,15.77,5.4,20.5c3.6,4.73,8.6,7.1,15,7.1s11.4-2.4,15-7.2c3.6-4.8,5.4-11.6,5.4-20.4s-1.8-15.43-5.4-20.3c-3.6-4.87-8.6-7.3-15-7.3Z"/>
      <path class="cls-3" d="M999.63,415.61l-29.8-.6v-92.8c1.33-.4,3.2-.8,5.6-1.2,2.4-.4,5-.6,7.8-.6,5.73,0,9.9,1,12.5,3s3.9,5.67,3.9,11v81.2ZM969.83,399.61l29.8.6v52c-1.33.4-3.2.77-5.6,1.1-2.4.33-5,.5-7.8.5-5.6,0-9.73-1-12.4-3-2.67-2-4-5.6-4-10.8v-40.4Z"/>
      <path class="cls-3" d="M1022.83,328.81c0-4.53,1.57-8.33,4.7-11.4,3.13-3.07,7.1-4.6,11.9-4.6s8.93,1.53,12,4.6c3.07,3.07,4.6,6.87,4.6,11.4s-1.53,8.2-4.6,11.4c-3.07,3.2-7.07,4.8-12,4.8s-8.77-1.6-11.9-4.8c-3.13-3.2-4.7-7-4.7-11.4ZM1054.23,415.01h-29.6v-57.4c1.2-.4,3.03-.8,5.5-1.2,2.46-.4,5.1-.6,7.9-.6,5.73,0,9.87.97,12.4,2.9,2.53,1.93,3.8,5.63,3.8,11.1v45.2ZM1024.63,399.61h29.6v52.6c-1.2.4-3,.77-5.4,1.1-2.4.33-5,.5-7.8.5-5.73,0-9.9-1-12.5-3-2.6-2-3.9-5.6-3.9-10.8v-40.4Z"/>
      <path class="cls-3" d="M1140.43,428.61v-60.2h29.6v64c0,3.2-.67,5.9-2,8.1-1.33,2.2-3.47,4.17-6.4,5.9-3.6,2.4-8.27,4.5-14,6.3-5.73,1.8-12.33,2.7-19.8,2.7-11.2,0-20.83-1.87-28.9-5.6-8.07-3.73-14.3-9.37-18.7-16.9-4.4-7.53-6.6-16.9-6.6-28.1s2.23-21.37,6.7-28.9c4.47-7.53,10.5-13.17,18.1-16.9,7.6-3.73,16-5.6,25.2-5.6,4.8,0,9.07.53,12.8,1.6,3.73,1.07,6.8,2.33,9.2,3.8v24.4c-1.87-1.6-4.33-3.07-7.4-4.4-3.07-1.33-6.6-2-10.6-2-4.67,0-8.8,1-12.4,3-3.6,2-6.4,5.07-8.4,9.2-2,4.13-3,9.4-3,15.8,0,9.33,2.1,16.2,6.3,20.6s9.9,6.6,17.1,6.6c2.93,0,5.53-.37,7.8-1.1,2.27-.73,4.07-1.5,5.4-2.3ZM1170.03,374.21l-29.6.2v-52.2c1.2-.4,3-.8,5.4-1.2,2.4-.4,5-.6,7.8-.6,5.87,0,10.07,1,12.6,3,2.53,2,3.8,5.67,3.8,11v39.8Z"/>
      <path class="cls-3" d="M1231.83,353.41c13.87,0,24.93,2.9,33.2,8.7,8.27,5.8,12.4,14.77,12.4,26.9v45.4c0,3.33-.87,6.03-2.6,8.1-1.73,2.07-3.93,3.83-6.6,5.3-4,2.4-8.97,4.3-14.9,5.7-5.93,1.4-12.7,2.1-20.3,2.1-13.6,0-24.43-2.67-32.5-8-8.07-5.33-12.1-13.27-12.1-23.8,0-9.07,2.8-16.03,8.4-20.9,5.6-4.87,13.93-7.83,25-8.9l26.6-2.8v-2.4c0-4.53-1.77-7.8-5.3-9.8-3.53-2-8.57-3-15.1-3-5.07,0-10.03.6-14.9,1.8-4.87,1.2-9.23,2.6-13.1,4.2-1.6-1.07-2.97-2.7-4.1-4.9-1.13-2.2-1.7-4.5-1.7-6.9,0-5.6,3.07-9.67,9.2-12.2,3.87-1.6,8.37-2.77,13.5-3.5,5.13-.73,10.1-1.1,14.9-1.1ZM1233.03,433.41c3.07,0,6.1-.3,9.1-.9s5.17-1.3,6.5-2.1v-19.2l-16.8,1.6c-4.53.27-8.13,1.2-10.8,2.8-2.67,1.6-4,4-4,7.2s1.27,5.77,3.8,7.7c2.53,1.93,6.6,2.9,12.2,2.9Z"/>
      <path class="cls-3" d="M1316.23,428.61c-2.13-4.4-4.43-9.73-6.9-16-2.47-6.27-5.03-13.67-7.7-22.2-2.67-8.53-5.53-18.4-8.6-29.6,1.73-1.73,3.96-3.23,6.7-4.5,2.73-1.27,5.7-1.9,8.9-1.9,4.13,0,7.53.87,10.2,2.6,2.67,1.73,4.67,5,6,9.8,3.07,9.73,6.13,19.4,9.2,29,3.07,9.6,6.2,19.27,9.4,29h.8c2.27-6,4.57-12.8,6.9-20.4,2.33-7.6,4.5-15.43,6.5-23.5,2-8.07,3.73-15.83,5.2-23.3,1.87-.93,3.87-1.7,6-2.3,2.13-.6,4.33-.9,6.6-.9,4.13,0,7.7.9,10.7,2.7,3,1.8,4.5,4.83,4.5,9.1,0,3.73-.57,8.33-1.7,13.8-1.13,5.47-2.63,11.37-4.5,17.7-1.87,6.33-4.07,12.8-6.6,19.4-2.53,6.6-5.17,12.97-7.9,19.1-2.73,6.13-5.5,11.67-8.3,16.6-7.2,12.53-13.83,21.9-19.9,28.1-6.07,6.2-12.1,9.3-18.1,9.3-4.8,0-8.77-1.47-11.9-4.4-3.13-2.93-5.03-6.67-5.7-11.2,2.93-2.4,5.93-5.17,9-8.3,3.07-3.13,6-6.47,8.8-10,2.8-3.53,5.27-7.03,7.4-10.5-2.27-.67-4.6-2.13-7-4.4-2.4-2.27-5.07-6.53-8-12.8Z"/>
      <path class="cls-3" d="M766.44,653.41h-44.2v-71.6c0-2.53.73-4.53,2.2-6,1.46-1.47,3.4-2.6,5.8-3.4,4.4-1.6,9.67-2.73,15.8-3.4,6.13-.67,11.67-1,16.6-1,18,0,31.63,3.83,40.9,11.5,9.27,7.67,13.9,18.1,13.9,31.3,0,8.53-2.04,16-6.1,22.4-4.07,6.4-9.9,11.37-17.5,14.9-7.6,3.53-16.73,5.3-27.4,5.3ZM722.24,640.01h30.4v52.2c-1.2.4-3.13.77-5.8,1.1-2.67.33-5.4.5-8.2.5-6,0-10.23-1.07-12.7-3.2-2.47-2.13-3.7-5.87-3.7-11.2v-39.4ZM752.44,629.41h12c6.8,0,12.17-1.6,16.1-4.8,3.93-3.2,5.9-7.8,5.9-13.8s-1.87-10.53-5.6-13.6c-3.73-3.07-9.13-4.6-16.2-4.6-2.4,0-4.57.07-6.5.2-1.93.13-3.83.33-5.7.6v36Z"/>
      <path class="cls-3" d="M866.04,655.61l-29.8-.6v-92.8c1.33-.4,3.2-.8,5.6-1.2,2.4-.4,5-.6,7.8-.6,5.73,0,9.9,1,12.5,3s3.9,5.67,3.9,11v81.2ZM836.23,639.61l29.8.6v52c-1.33.4-3.2.77-5.6,1.1-2.4.33-5,.5-7.8.5-5.6,0-9.73-1-12.4-3-2.67-2-4-5.6-4-10.8v-40.4Z"/>
      <path class="cls-3" d="M928.43,593.41c13.87,0,24.93,2.9,33.2,8.7,8.27,5.8,12.4,14.77,12.4,26.9v45.4c0,3.33-.87,6.03-2.6,8.1-1.73,2.07-3.93,3.83-6.6,5.3-4,2.4-8.97,4.3-14.9,5.7-5.93,1.4-12.7,2.1-20.3,2.1-13.6,0-24.43-2.67-32.5-8-8.07-5.33-12.1-13.27-12.1-23.8,0-9.07,2.8-16.03,8.4-20.9,5.6-4.87,13.93-7.83,25-8.9l26.6-2.8v-2.4c0-4.53-1.77-7.8-5.3-9.8-3.53-2-8.57-3-15.1-3-5.07,0-10.03.6-14.9,1.8-4.87,1.2-9.23,2.6-13.1,4.2-1.6-1.07-2.97-2.7-4.1-4.9-1.13-2.2-1.7-4.5-1.7-6.9,0-5.6,3.07-9.67,9.2-12.2,3.87-1.6,8.37-2.77,13.5-3.5,5.13-.73,10.1-1.1,14.9-1.1ZM929.63,673.41c3.07,0,6.1-.3,9.1-.9,3-.6,5.17-1.3,6.5-2.1v-19.2l-16.8,1.6c-4.53.27-8.13,1.2-10.8,2.8-2.67,1.6-4,4-4,7.2s1.27,5.77,3.8,7.7c2.53,1.93,6.6,2.9,12.2,2.9Z"/>
      <path class="cls-3" d="M1088.63,630.21v18.8h-29.8v-17.8c0-4.93-1.43-8.57-4.3-10.9-2.87-2.33-6.63-3.5-11.3-3.5-3.33,0-6.4.43-9.2,1.3-2.8.87-5.33,1.9-7.6,3.1v27.8h-29.6v-31.2c0-3.33.7-6.1,2.1-8.3,1.4-2.2,3.43-4.17,6.1-5.9,4.27-2.93,9.73-5.37,16.4-7.3,6.67-1.93,14-2.9,22-2.9,14.4,0,25.53,3.17,33.4,9.5,7.87,6.33,11.8,15.43,11.8,27.3ZM996.83,639.81h29.6v52.4c-1.33.4-3.2.77-5.6,1.1-2.4.33-5,.5-7.8.5-5.6,0-9.7-1-12.3-3s-3.9-5.6-3.9-10.8v-40.2ZM1058.83,639.81h29.8v52.4c-1.33.4-3.2.77-5.6,1.1-2.4.33-5,.5-7.8.5-5.6,0-9.73-1-12.4-3-2.67-2-4-5.6-4-10.8v-40.2Z"/>
      <path class="cls-3" d="M1125.63,658.41l-1.2-20,49.6-7.8c-.27-3.73-1.87-7.2-4.8-10.4-2.93-3.2-7.27-4.8-13-4.8s-11,2.03-15,6.1c-4,4.07-6.13,9.83-6.4,17.3l1,13.8c1.2,7.33,4.33,12.57,9.4,15.7,5.07,3.13,11.07,4.7,18,4.7,5.6,0,10.87-.8,15.8-2.4,4.93-1.6,8.93-3.27,12-5,2,1.2,3.63,2.87,4.9,5,1.27,2.13,1.9,4.4,1.9,6.8,0,4-1.57,7.33-4.7,10-3.13,2.67-7.47,4.67-13,6-5.54,1.33-11.83,2-18.9,2-10.27,0-19.5-1.93-27.7-5.8-8.2-3.87-14.63-9.67-19.3-17.4-4.67-7.73-7-17.4-7-29,0-8.53,1.37-15.93,4.1-22.2,2.73-6.27,6.4-11.43,11-15.5,4.6-4.07,9.8-7.1,15.6-9.1s11.83-3,18.1-3c9.2,0,17.23,1.83,24.1,5.5,6.87,3.67,12.23,8.63,16.1,14.9,3.87,6.27,5.8,13.53,5.8,21.8,0,4.13-1.13,7.27-3.4,9.4-2.27,2.13-5.4,3.47-9.4,4l-63.6,9.4Z"/>
      <path class="cls-3" d="M1249.83,644.61h-29.4v-71.8c1.33-.4,3.2-.83,5.6-1.3,2.4-.46,4.93-.7,7.6-.7,5.73,0,9.87,1,12.4,3,2.53,2,3.8,5.67,3.8,11v59.8ZM1220.43,639.61h29.4v21.4c0,3.73,1.2,6.47,3.6,8.2,2.4,1.73,5.8,2.6,10.2,2.6,2,0,4.17-.23,6.5-.7,2.33-.47,4.3-1.03,5.9-1.7,1.07,1.2,2.03,2.67,2.9,4.4.87,1.73,1.3,3.73,1.3,6,0,4.53-1.87,8.27-5.6,11.2-3.73,2.93-10,4.4-18.8,4.4-11.2,0-19.9-2.53-26.1-7.6-6.2-5.07-9.3-13.33-9.3-24.8v-23.4ZM1239.23,621.41v-22.8h38.4c.67,1.07,1.33,2.6,2,4.6.67,2,1,4.2,1,6.6,0,4-.9,6.93-2.7,8.8-1.8,1.87-4.23,2.8-7.3,2.8h-31.4Z"/>
    </g>
  </g>
</svg>