<?xml version="1.0" encoding="UTF-8"?>
<svg id="Layer_1" data-name="Layer 1" xmlns="http://www.w3.org/2000/svg" viewBox="0 0 1828.83 1024">
  <defs>
    <style>
      .cls-1 {
        fill: #33bce6;
      }

      .cls-1, .cls-2, .cls-3, .cls-4 {
        stroke-width: 0px;
      }

      .cls-2 {
        fill: #84c857;
      }

      .cls-3 {
        fill: #122543;
      }

      .cls-4 {
        fill: #fff;
      }
    </style>
  </defs>
  <g id="Colour_Logo" data-name="Colour Logo">
    <g>
      <path class="cls-3" d="M1096.63,418.3h-22.84v-63.3c1.08-.24,2.61-.54,4.59-.9s3.98-.54,6.02-.54c4.32,0,7.43.75,9.35,2.25,1.92,1.5,2.88,4.29,2.88,8.36v54.13ZM1073.79,392.23h22.84v71.58c-.96.36-2.43.69-4.41.99-1.98.3-4.05.45-6.2.45-4.32,0-7.44-.81-9.35-2.43-1.92-1.62-2.88-4.34-2.88-8.18v-62.4ZM1155.07,418.3h-70.14v-18.16h70.14v18.16ZM1165.14,418.3h-22.66v-63.3c.96-.24,2.43-.54,4.41-.9s3.98-.54,6.02-.54c4.32,0,7.43.78,9.35,2.34,1.92,1.56,2.88,4.38,2.88,8.45v53.95ZM1142.48,392.23h22.66v71.58c-.96.36-2.43.69-4.41.99-1.98.3-3.99.45-6.03.45-4.44,0-7.58-.81-9.44-2.43-1.86-1.62-2.79-4.34-2.79-8.18v-62.4Z"/>
      <path class="cls-3" d="M1274.13,421.54c0,9.23-1.8,17.24-5.4,24.01-3.6,6.77-8.66,11.99-15.2,15.65-6.54,3.66-14.24,5.49-23.11,5.49s-16.61-1.83-23.2-5.49c-6.59-3.66-11.72-8.84-15.38-15.56-3.66-6.71-5.49-14.75-5.49-24.1s1.86-17.2,5.57-23.92c3.72-6.71,8.87-11.9,15.47-15.56,6.59-3.66,14.27-5.49,23.02-5.49s16.39,1.86,22.93,5.58c6.53,3.72,11.63,8.93,15.29,15.65,3.66,6.72,5.49,14.63,5.49,23.74ZM1230.24,394.21c-6.47,0-11.6,2.4-15.38,7.19-3.78,4.8-5.67,11.51-5.67,20.14s1.86,15.68,5.58,20.41c3.71,4.74,8.93,7.1,15.65,7.1s11.75-2.4,15.47-7.19c3.72-4.79,5.57-11.57,5.57-20.32s-1.86-15.2-5.57-20.05c-3.72-4.86-8.93-7.28-15.65-7.28Z"/>
      <path class="cls-3" d="M1316.38,429.09l-22.12-1.08v-80.75c.84-.24,2.19-.54,4.05-.9,1.86-.36,3.8-.54,5.84-.54,4.32,0,7.43.75,9.35,2.25,1.92,1.5,2.88,4.17,2.88,8v73.01ZM1294.26,416.69l22.12,1.08v46.04c-.96.36-2.34.69-4.14.99-1.8.3-3.78.45-5.93.45-4.08,0-7.1-.75-9.08-2.25-1.98-1.5-2.97-4.16-2.97-8v-38.31Z"/>
      <path class="cls-3" d="M1339.58,353.74c0-3.48,1.23-6.41,3.69-8.81,2.46-2.4,5.54-3.6,9.26-3.6s6.92,1.2,9.26,3.6c2.34,2.4,3.51,5.34,3.51,8.81s-1.17,6.27-3.51,8.72c-2.34,2.46-5.43,3.69-9.26,3.69s-6.81-1.23-9.26-3.69c-2.46-2.46-3.69-5.36-3.69-8.72ZM1363.68,428.02h-22.3v-48.2c.96-.36,2.37-.69,4.23-.99,1.86-.3,3.87-.45,6.02-.45,4.2,0,7.25.75,9.17,2.25,1.92,1.5,2.88,4.23,2.88,8.18v39.21ZM1341.38,416.69h22.3v47.12c-.96.36-2.34.69-4.14.99-1.8.3-3.78.45-5.93.45-4.08,0-7.13-.75-9.17-2.25-2.04-1.5-3.06-4.16-3.06-8v-38.31Z"/>
      <path class="cls-3" d="M1443.88,445.46v-56.47h22.12v58.81c0,2.64-.57,4.83-1.71,6.56-1.14,1.74-2.97,3.39-5.49,4.95-2.88,1.92-6.68,3.63-11.42,5.13-4.74,1.5-10.34,2.25-16.81,2.25-9.47,0-17.74-1.59-24.82-4.77-7.08-3.18-12.59-8.09-16.54-14.75-3.96-6.65-5.93-15.08-5.93-25.27s1.95-19,5.84-25.72c3.89-6.71,9.14-11.66,15.74-14.84,6.59-3.18,13.91-4.77,21.94-4.77,4.43,0,8.48.54,12.14,1.62,3.66,1.08,6.62,2.34,8.9,3.78v18.88c-1.92-1.8-4.44-3.35-7.55-4.68-3.12-1.32-6.72-1.98-10.79-1.98-4.44,0-8.45.93-12.05,2.79-3.6,1.86-6.41,4.86-8.45,8.99-2.04,4.14-3.06,9.5-3.06,16.1,0,9.35,2.16,16.19,6.47,20.5,4.32,4.32,10.13,6.47,17.44,6.47,3.24,0,5.99-.36,8.27-1.08,2.28-.72,4.2-1.56,5.75-2.52ZM1466,393.49l-22.12.18v-46.4c.84-.24,2.19-.54,4.05-.9,1.86-.36,3.81-.54,5.84-.54,4.32,0,7.43.75,9.35,2.25,1.92,1.5,2.88,4.17,2.88,8v37.41Z"/>
      <path class="cls-3" d="M1521.93,376.58c11.75,0,21.1,2.49,28.05,7.46,6.95,4.98,10.43,12.8,10.43,23.47v41.36c0,2.88-.69,5.16-2.07,6.83-1.38,1.68-3.15,3.18-5.31,4.5-3.36,1.92-7.62,3.51-12.77,4.77-5.16,1.26-10.97,1.89-17.44,1.89-11.99,0-21.4-2.31-28.23-6.92-6.83-4.61-10.25-11.48-10.25-20.59,0-8.03,2.55-14.18,7.64-18.43,5.09-4.25,12.5-6.86,22.21-7.82l24.46-2.52v-3.24c0-4.79-1.65-8.27-4.95-10.43-3.3-2.16-7.94-3.24-13.94-3.24-4.68,0-9.23.6-13.67,1.8-4.44,1.2-8.39,2.64-11.87,4.32-1.2-.96-2.28-2.28-3.24-3.96-.96-1.68-1.44-3.42-1.44-5.22,0-4.32,2.4-7.49,7.19-9.53,3.35-1.56,7.28-2.7,11.78-3.42,4.5-.72,8.96-1.08,13.4-1.08ZM1522.83,449.96c3.6,0,6.83-.36,9.71-1.08s4.97-1.5,6.29-2.34v-20.5l-17.8,1.8c-4.92.36-8.66,1.41-11.24,3.15-2.58,1.74-3.87,4.29-3.87,7.64s1.38,6.24,4.14,8.27c2.76,2.04,7.01,3.06,12.77,3.06Z"/>
      <path class="cls-3" d="M1598.36,443.84c-1.92-3.96-4.11-8.9-6.56-14.84-2.46-5.93-5.01-12.83-7.64-20.68-2.64-7.85-5.34-16.51-8.09-25.99,1.32-1.44,3-2.64,5.04-3.6,2.04-.96,4.25-1.44,6.65-1.44,3.12,0,5.67.69,7.64,2.07,1.98,1.38,3.51,3.87,4.59,7.46,3.12,9.35,6.26,18.59,9.44,27.7,3.18,9.11,6.56,18.41,10.16,27.87h.72c2.28-5.27,4.56-11.48,6.83-18.61,2.28-7.13,4.46-14.54,6.56-22.21,2.1-7.67,3.87-14.99,5.31-21.94,1.44-.72,2.94-1.29,4.5-1.71,1.56-.42,3.24-.63,5.04-.63,2.99,0,5.6.69,7.82,2.07,2.22,1.38,3.33,3.69,3.33,6.92,0,2.88-.51,6.68-1.53,11.42-1.02,4.74-2.43,9.98-4.23,15.74s-3.87,11.75-6.2,17.98c-2.34,6.24-4.8,12.26-7.37,18.07-2.58,5.82-5.19,11.06-7.82,15.74-6.11,10.91-11.75,19.15-16.9,24.73-5.16,5.58-10.13,8.36-14.93,8.36-3.72,0-6.74-1.11-9.08-3.33-2.34-2.22-3.75-4.95-4.23-8.18,2.64-2.28,5.42-5.01,8.36-8.18,2.94-3.18,5.78-6.56,8.54-10.16,2.76-3.6,5.09-7.13,7.01-10.61-2.04-.6-4.08-1.83-6.11-3.69-2.04-1.86-4.32-5.31-6.83-10.34Z"/>
      <path class="cls-3" d="M1111.01,643.46h-37.23v-63.66c0-2.16.63-3.84,1.89-5.04,1.26-1.2,2.91-2.16,4.95-2.88,3.84-1.2,8.39-2.1,13.67-2.7,5.27-.6,10.19-.9,14.75-.9,15.83,0,27.66,3.36,35.52,10.07,7.85,6.72,11.78,15.83,11.78,27.34,0,7.67-1.74,14.33-5.22,19.96-3.48,5.64-8.57,10.01-15.29,13.13-6.72,3.12-14.99,4.68-24.82,4.68ZM1073.79,633.21h22.84v46.4c-.96.36-2.43.69-4.41.99-1.98.3-4.05.45-6.2.45-4.32,0-7.44-.81-9.35-2.43-1.92-1.62-2.88-4.34-2.88-8.18v-37.23ZM1096.45,625.3h13.31c7.31,0,13.07-1.65,17.26-4.95,4.2-3.3,6.29-8.12,6.29-14.48s-2.01-11.27-6.03-14.39c-4.02-3.12-9.74-4.68-17.17-4.68-2.64,0-5.1.09-7.37.27-2.28.18-4.38.45-6.29.81v37.41Z"/>
      <path class="cls-3" d="M1198.05,644.9l-22.12-1.08v-80.75c.84-.24,2.19-.54,4.05-.9,1.86-.36,3.8-.54,5.84-.54,4.32,0,7.43.75,9.35,2.25,1.92,1.5,2.88,4.17,2.88,8v73.01ZM1175.93,632.49l22.12,1.08v46.04c-.96.36-2.34.69-4.14.99-1.8.3-3.78.45-5.93.45-4.08,0-7.1-.75-9.08-2.25-1.98-1.5-2.97-4.16-2.97-8v-38.31Z"/>
      <path class="cls-3" d="M1254.7,592.39c11.75,0,21.1,2.49,28.05,7.46,6.95,4.98,10.43,12.8,10.43,23.47v41.36c0,2.88-.69,5.16-2.07,6.83-1.38,1.68-3.15,3.18-5.31,4.5-3.36,1.92-7.62,3.51-12.77,4.77-5.16,1.26-10.97,1.89-17.44,1.89-11.99,0-21.4-2.31-28.23-6.92-6.83-4.61-10.25-11.48-10.25-20.59,0-8.03,2.55-14.18,7.64-18.43,5.09-4.25,12.5-6.86,22.21-7.82l24.46-2.52v-3.24c0-4.79-1.65-8.27-4.95-10.43-3.3-2.16-7.94-3.24-13.94-3.24-4.68,0-9.23.6-13.67,1.8-4.44,1.2-8.39,2.64-11.87,4.32-1.2-.96-2.28-2.28-3.24-3.96-.96-1.68-1.44-3.42-1.44-5.22,0-4.32,2.4-7.49,7.19-9.53,3.35-1.56,7.28-2.7,11.78-3.42,4.5-.72,8.96-1.08,13.4-1.08ZM1255.6,665.76c3.6,0,6.83-.36,9.71-1.08s4.97-1.5,6.29-2.34v-20.5l-17.8,1.8c-4.92.36-8.66,1.41-11.24,3.15-2.58,1.74-3.87,4.29-3.87,7.64s1.38,6.24,4.14,8.27c2.76,2.04,7.01,3.06,12.77,3.06Z"/>
      <path class="cls-3" d="M1394.43,624.4v17.44h-22.12v-16.54c0-5.27-1.5-9.14-4.5-11.6-3-2.46-7.01-3.69-12.05-3.69-3.72,0-7.04.45-9.98,1.35-2.94.9-5.55,1.95-7.82,3.15v27.34h-22.12v-28.77c0-2.88.6-5.24,1.8-7.1,1.2-1.86,3-3.57,5.4-5.13,3.6-2.4,8.24-4.41,13.94-6.02,5.69-1.62,12.02-2.43,18.97-2.43,12.11,0,21.55,2.7,28.32,8.09,6.77,5.4,10.16,13.37,10.16,23.92ZM1315.84,633.03h22.12v46.58c-.96.36-2.34.69-4.14.99-1.8.3-3.78.45-5.93.45-4.08,0-7.1-.75-9.08-2.25-1.98-1.5-2.97-4.16-2.97-8v-37.77ZM1372.31,633.03h22.12v46.58c-.84.36-2.19.69-4.05.99-1.86.3-3.81.45-5.84.45-4.2,0-7.28-.75-9.26-2.25-1.98-1.5-2.97-4.16-2.97-8v-37.77Z"/>
      <path class="cls-3" d="M1427.34,648.68l-.9-15.47,48.2-7.19c-.36-4.56-2.1-8.51-5.22-11.87-3.12-3.36-7.67-5.04-13.67-5.04s-11.21,2.13-15.29,6.38c-4.08,4.26-6.18,10.34-6.29,18.25l.54,9.35c1.08,7.67,4.05,13.31,8.9,16.9,4.86,3.6,11,5.4,18.43,5.4,5.04,0,9.71-.75,14.03-2.25,4.32-1.5,7.73-3.15,10.25-4.95,1.68,1.08,3.03,2.43,4.05,4.05,1.02,1.62,1.53,3.39,1.53,5.31,0,3.12-1.38,5.79-4.14,8-2.76,2.22-6.47,3.93-11.15,5.13-4.68,1.2-10.01,1.8-16.01,1.8-9.23,0-17.42-1.71-24.55-5.13-7.13-3.42-12.71-8.54-16.73-15.38-4.02-6.83-6.02-15.35-6.02-25.54,0-7.31,1.14-13.73,3.42-19.24,2.28-5.51,5.36-10.1,9.26-13.76,3.89-3.66,8.42-6.41,13.58-8.27,5.15-1.86,10.55-2.79,16.19-2.79,7.91,0,14.84,1.59,20.77,4.77,5.93,3.18,10.61,7.58,14.03,13.22,3.42,5.64,5.13,12.11,5.13,19.42,0,3.36-.87,5.84-2.61,7.46-1.74,1.62-4.17,2.61-7.28,2.97l-58.45,8.45Z"/>
      <path class="cls-3" d="M1535.78,637.35h-22.12v-64.74c.96-.36,2.37-.72,4.23-1.08,1.86-.36,3.8-.54,5.84-.54,4.2,0,7.25.75,9.17,2.25,1.92,1.5,2.88,4.17,2.88,8v56.11ZM1513.66,632.49h22.12v21.22c0,3.96,1.17,6.77,3.51,8.45,2.34,1.68,5.67,2.52,9.98,2.52,1.92,0,3.98-.24,6.2-.72,2.22-.48,4.11-1.08,5.67-1.8.84.96,1.62,2.1,2.34,3.42.72,1.32,1.08,2.94,1.08,4.86,0,3.48-1.65,6.36-4.95,8.63-3.3,2.28-8.42,3.42-15.38,3.42-9.47,0-16.94-2.13-22.39-6.38-5.46-4.25-8.18-11.18-8.18-20.77v-22.84ZM1527.15,614.15v-17.44h35.25c.48.84.99,2.04,1.53,3.6.54,1.56.81,3.18.81,4.86,0,3-.72,5.25-2.16,6.74-1.44,1.5-3.3,2.25-5.57,2.25h-29.85Z"/>
    </g>
    <g id="Light_Blue" data-name="Light Blue">
      <path class="cls-1" d="M705.91,718.85c-24.03-.41-55.31,70.23-55.31,70.23,0,0,7.67.41,20.72.62,13.05.21,40.19,7.87,40.19,7.87l43.51-59.46s-25.07-18.85-49.1-19.27Z"/>
      <path class="cls-1" d="M677.21,717.12c4.05-4.01,6.37-5.73,8.96-7.5l-57.11-98.91c-42.26,17.82-49.72,41.43-55.52,50.55-5.8,9.12-20.72,3.73-20.72,3.73,0,0-10.36,25.69-10.12,63.81.24,38.12,10.12,73.75,10.12,73.75,0,0,37.29,5.8,63.81-6.63,7.85-3.68,14.6-9.14,20.44-15.44,2.5-5.41,9.47-20.02,18.55-34.82,7.48-12.2,14.62-21.65,21.59-28.54Z"/>
      <path class="cls-1" d="M357.95,360.21c24.03,12.43,137.97,40.6,118.09,120.16-.55,2.2-1.24,4.32-2.06,6.38,5.53,8.36,9.81,17.42,12.71,26.96,12.01-5.39,45.6-20.39,54.57-23.61,6.26-2.25,17.9-4.87,30.14-4.87h0c30.07,0,50.67,15.9,55.09,42.53,2,12.06-2.36,25.94-13.73,43.68-7.29,11.38-17.69,24.64-30.91,39.41-9.81,10.97-19.68,21.1-27.67,29.05,3.54,2.67,6.01,6.48,7.04,10.75.04,0,.09.01.13.01.27-.5.57-1.04.86-1.59,3.25-6,8.15-15.07,17.61-24.83,10.88-11.22,25.37-20.7,43.08-28.16,4.05-1.71,7.99-1.48,11.13-.45l9.93-7.04c22.54-21.68,72.07-69.36,79.58-76.86,9.77-9.76,25.9-29.26,26.72-52.62,1.04-29.42-8.68-67.36-23.28-95.32-14.61-27.97-46.3-62.15-70.85-91.36-24.55-29.21-21.65-54.07-18.65-54.07,1.57.22,3.19.51,4.84.86-30.05-10.61-61.48-15.99-93.7-15.99-39.35,0-77.52,8.01-113.45,23.8-34.8,15.3-66.09,37.23-92.99,65.19-8.48,8.81-16.38,18.08-23.7,27.78,3.35,5.62,18.38,29.3,39.48,40.21ZM462.77,288.94c.41-18.23,3.83-33.25,34.39-47.23,30.56-13.98,75.67,20.04,94.93,38.07,19.27,18.02,34.86,59.31,31.98,88.53-2.25,17.71-8.16,36.19-20.51,41.14-12.35,4.95-22.68,5.9-41.5-5.72-23.29-14.39-22.49-20.46-44.24-44.07-21.75-23.62-35.33-26.89-43.87-38.5-8.53-11.6-11.6-13.97-11.19-32.2Z"/>
    </g>
    <g id="Green">
      <path class="cls-2" d="M656.11,272.42c24.55,29.21,56.25,63.39,70.85,91.36,14.61,27.97,24.32,65.91,23.28,95.32-.82,23.36-16.96,42.86-26.72,52.62-7.5,7.5-57.04,55.18-79.58,76.86l6.72-4.76s.04-.03.05-.04c3.88-2.73,15.85-9.08,43.2-9.08,24.37,0,49.93,13.43,70.89,37.59h0s0,0,0,0c31.89-53.77,50.19-116.55,50.19-183.6,0-19.05-1.49-37.75-4.33-56-14.17-29.76-32.82-56.78-55.62-80.48-26.9-27.95-58.18-49.89-92.99-65.19-8.14-3.58-16.41-6.74-24.77-9.52-2.81,2.33-4.54,27.11,18.82,54.91Z"/>
      <path class="cls-2" d="M256.03,508.58c0,7.07.23,14.11.69,21.1l25.89,2.54c2.68-23.37,13.07-45.01,29.96-61.89,19.77-19.77,46.05-30.65,74-30.65s54.24,10.89,74,30.65c5.37,5.37,10.09,11.23,14.11,17.47.63-3.64,1.16-6.65,1.35-7.43,19.89-79.55-94.05-107.73-118.09-120.16-21.1-10.91-36.13-34.6-39.48-40.21-15.97,21.17-29.13,44.37-39.29,69.33-15.36,37.74-23.15,77.87-23.15,119.26Z"/>
      <path class="cls-2" d="M592.1,279.77c-19.27-18.02-64.38-52.05-94.93-38.07-30.56,13.98-33.98,29-34.39,47.23-.41,18.23,2.65,20.6,11.19,32.2,8.53,11.6,22.11,14.88,43.87,38.5,21.75,23.62,20.96,29.68,44.24,44.07,18.81,11.63,29.15,10.67,41.5,5.72,12.35-4.95,18.26-23.42,20.51-41.14,2.87-29.21-12.71-70.5-31.98-88.53Z"/>
    </g>
    <g>
      <path id="Left_Leg" data-name="Left Leg" class="cls-4" d="M862.33,785.61l-96.22-35.75-35.02,47.87,115.5,33.67s29.83,12.02,36.46-13.05c6.63-25.07-20.72-32.73-20.72-32.73Z"/>
      <path id="Right_Leg" data-name="Right Leg" class="cls-4" d="M763.17,724.42l67.87,24.73s3.73-20.2-5.59-34.49c-9.32-14.29-77.69-92.91-77.69-92.91,0,0-26.1-27.66-51.9-27.97-25.79-.31-34.18,5.59-34.18,5.59l-14.79,10.48,45.5,78.8c7.98-7.23,16.83-15.32,16.83-15.32l44.41,44.98c4.45,2.6,7.76,4.86,9.53,6.11Z"/>
      <circle id="Face" class="cls-4" cx="386.57" cy="544.33" r="79.24"/>
      <path id="Torso" class="cls-4" d="M607.68,530.87c-5.9-35.58-50.03-26.41-59.98-22.84-9.94,3.57-57.03,24.79-57.03,24.79,0,0,.83,24.44.83,24.45l51.2-19.06s-93.59,155.04-209.22,96.36c-43.93-22.29-81.46-60.73-81.46-60.73l34.39,2.49s-3.61-15.16-4.25-24.99l-40.91-4.01s-34.39-4.97-48.89,26.52c-14.5,31.49,35.63,64.64,35.63,64.64,0,0,138.39,101.1,188.11,130.1,49.72,29,118.91,33.43,118.91,33.43-12.01-74.15-10.15-90.72,4.44-144.72l-15.63-14.67s88.9-81.36,83.86-111.75Z"/>
      <path id="Right_Reflection" data-name="Right Reflection" class="cls-4" d="M339.74,505.01c1.54-.71.68-3.06-.95-2.59-.1.03-8.98,2.53-11.69,11.54-1.48,4.94-.89,9.7,1.12,13.62.78,1.52,3.05.52,2.53-1.11-4.39-13.95,8.45-21.22,8.97-21.47Z"/>
      <path id="Left_Reflection" data-name="Left Reflection" class="cls-4" d="M413.5,501.43c1.54-.71.68-3.06-.95-2.59-.1.03-8.98,2.53-11.69,11.54-1.48,4.94-.89,9.7,1.12,13.62.78,1.52,3.05.52,2.53-1.11-4.39-13.95,8.45-21.22,8.97-21.47Z"/>
    </g>
    <g>
      <path class="cls-3" d="M388.85,594.48c.23,0,.46-.01.7-.02,28.98-.98,40.61-24.5,41.09-25.5,1.51-3.15.19-6.91-2.95-8.45-3.14-1.53-6.94-.22-8.49,2.91-.36.72-8.96,17.63-30.09,18.34-.17,0-.34.01-.51.01-20.01.43-26.46-13.89-26.77-14.59-1.34-3.22-5.03-4.76-8.26-3.44-3.25,1.32-4.81,5.03-3.48,8.28.39.95,9.75,23.08,38.76,22.45Z"/>
      <path class="cls-3" d="M887.43,777.99c-7.68-6.46-15.93-9.47-19.01-10.44l-21.43-7.96c1.37-2.09,2.33-4.45,2.8-6.97.52-2.83,4.73-28.27-8.37-48.37-2.41-3.69-8.02-10.85-15.22-19.66h0s0,0,0,0c30.15-51.26,47.54-111.52,47.54-176,0-186.63-145.57-337.92-325.13-337.92S223.89,321.96,223.47,508.58c-.02,6.82.19,13.61.58,20.36-5.33.86-11.28,2.41-17.33,5.13-14.05,6.3-25.01,17.29-31.68,31.8-5.38,11.68-5.8,24.71-1.21,37.7,3.17,8.96,8.74,18.04,16.57,26.96,11.21,12.79,24.05,21.79,26.63,23.54,3.84,2.8,30.48,22.23,63.5,45.73,0,0,0,0,.01,0,0,0,0,0-.01,0,58.61,88.6,156.81,146.7,268.08,146.7,53.1,0,103.22-13.25,147.49-36.72l-.22.14c-.53-.13,7.84,1.95,11.32,2.94,1.43.4,2.88.6,4.31.6,1.3,0,2.58-.16,3.82-.47l125.2,36.49c3.17,1.17,11.53,3.85,21.28,3.85,19.85,0,34.68-11.26,39.67-30.12,4.6-17.38-.52-33.87-14.03-45.23ZM825.45,714.66c9.32,14.29,5.59,34.49,5.59,34.49l-40.56-14.78-27.31-9.95c-1.77-1.26-5.08-3.51-9.53-6.11l-44.41-44.98s-8.85,8.1-16.83,15.32l-45.5-78.8,14.79-10.48s7.96-5.61,32.23-5.61c.64,0,1.29,0,1.95.01,25.79.31,51.9,27.97,51.9,27.97,0,0,46.06,52.97,67.72,79.86,4.73,5.87,8.3,10.5,9.97,13.06ZM279.18,389.32c14.81-36.39,36-69.07,62.98-97.11,26.9-27.95,58.18-49.89,92.99-65.19,35.93-15.79,74.1-23.8,113.45-23.8s77.52,8.01,113.45,23.8c34.8,15.3,66.09,37.23,92.99,65.19,22.8,23.7,41.45,50.71,55.62,80.48,2.85,18.25,4.33,36.95,4.33,56,0,67.05-18.31,129.83-50.2,183.6-20.96-24.16-46.51-37.59-70.89-37.59-27.35,0-39.32,6.35-43.2,9.08-.02.01-.04.03-.05.04l-16.65,11.8c-3.58-1.17-7.5-1.08-11.13.45-17.71,7.46-32.2,16.94-43.08,28.16-9.46,9.76-14.37,18.83-17.61,24.83-.3.55-.59,1.09-.86,1.59-.04,0-.09,0-.13-.01-1.03-4.26-3.5-8.08-7.04-10.75,8-7.94,17.86-18.08,27.67-29.05,13.21-14.77,23.61-28.03,30.91-39.41,11.37-17.74,15.73-31.62,13.73-43.68-4.42-26.63-25.01-42.53-55.09-42.53h0c-12.23,0-23.88,2.63-30.14,4.87-8.96,3.22-42.56,18.23-54.57,23.61-4.93-16.21-13.8-31.06-26.12-43.38-19.77-19.77-46.05-30.65-74-30.65s-54.24,10.89-74,30.65c-16.88,16.88-27.28,38.52-29.96,61.89l-25.89-2.54c-.45-6.99-.69-14.03-.69-21.1,0-41.39,7.79-81.52,23.15-119.26ZM404.52,522.89c.51,1.62-1.76,2.62-2.53,1.11-2.01-3.92-2.61-8.69-1.12-13.62,2.71-9,11.59-11.51,11.69-11.54,1.63-.47,2.49,1.88.95,2.59-.53.24-13.37,7.52-8.97,21.47ZM404.04,494.05c-5.3.85-5.56,2.33-18.25,3.46-12.74.18-13.14-1.27-18.51-1.57-17.31-.98-34.31.18-44.76,1.72,14.41-19.74,37.73-32.57,64.04-32.57,23.25,0,44.17,10.02,58.66,25.97-10.6-.2-25.86.53-41.19,2.99ZM330.77,526.48c.51,1.62-1.76,2.62-2.53,1.11-2.01-3.92-2.61-8.69-1.12-13.62,2.71-9,11.59-11.51,11.69-11.54,1.63-.47,2.49,1.88.95,2.59-.53.24-13.37,7.52-8.97,21.47ZM329.95,545.58c7.65,5.61,31.24,3.27,38.79-.95,10.27-5.73,11.13-17.7,12.41-25.19.65-3.8,4.62-4.31,5.54-4.36.93-.05,4.92.05,5.96,3.76,2.05,7.32,4.14,19.13,14.93,23.78,7.94,3.42,31.64,3.32,38.68-3.04,7.11-6.43,7.13-26.77,7.96-29.96.4-1.56.99-2.78,1.64-3.76,6.33,11.39,9.95,24.5,9.95,38.46,0,43.76-35.48,79.24-79.24,79.24s-79.24-35.48-79.24-79.24c0-11.93,2.64-23.24,7.36-33.39,1.41,1.02,3.15,2.62,4.27,5.65,1.15,3.09,3.26,23.32,10.99,28.99ZM539.44,657.28c-14.59,54-16.45,70.57-4.44,144.72,0,0-69.19-4.43-118.91-33.43-49.72-29-188.11-130.1-188.11-130.1,0,0-50.13-33.15-35.63-64.64,14.5-31.49,48.89-26.52,48.89-26.52l40.91,4.01c.65,9.84,4.25,24.99,4.25,24.99l-34.39-2.49s37.54,38.43,81.46,60.73c115.63,58.68,209.23-96.38,209.22-96.36l-51.2,19.06s-.83-24.44-.83-24.45c0,0,47.09-21.21,57.03-24.79,9.94-3.57,54.07-12.74,59.98,22.84,5.04,30.38-83.86,111.75-83.86,111.75l15.63,14.67ZM616.63,795.92c-26.52,12.43-63.81,6.63-63.81,6.63,0,0-9.89-35.63-10.12-73.75-.24-38.12,10.12-63.81,10.12-63.81,0,0,14.92,5.39,20.72-3.73,5.8-9.12,13.26-32.73,55.52-50.55l57.11,98.91c-2.59,1.77-4.9,3.49-8.96,7.5-6.97,6.89-14.11,16.34-21.59,28.54-9.08,14.79-16.05,29.4-18.55,34.82-5.84,6.3-12.59,11.76-20.44,15.44ZM711.51,797.58s-27.14-7.67-40.19-7.87c-13.05-.21-20.72-.62-20.72-.62,0,0,31.28-70.64,55.31-70.23,24.03.41,49.1,19.27,49.1,19.27l-43.51,59.46ZM883.04,818.34c-3.38,12.8-12.82,15.93-21.24,15.93s-15.22-2.88-15.22-2.88l-115.5-33.67,15.36-20.99,19.67-26.88,7.4,2.75,88.83,33s27.35,7.67,20.72,32.73Z"/>
    </g>
  </g>
</svg>